<svg width="300" height="95" viewBox="0 0 300 95" fill="none" xmlns="http://www.w3.org/2000/svg">
<path d="M33.8418 21.2432V21.5024C33.6978 21.5024 33.4817 21.6177 33.1936 21.8481C33.0208 21.8481 32.8191 21.9778 32.5886 22.2371H32.459V21.9778C32.1997 22.2371 31.998 22.3667 31.854 22.3667L31.9836 22.626C30.1687 23.9224 29.146 24.5706 28.9155 24.5706L29.0452 24.8298C29.0164 25.0027 28.8147 25.1611 28.4402 25.3052V25.1755L28.5266 24.9595H28.3105L28.0513 25.0459C28.1665 25.3916 28.2961 25.5645 28.4402 25.5645H28.5266C29.2756 25.0747 29.7366 24.8298 29.9094 24.8298V24.9595C29.3621 25.7661 28.7427 26.1694 28.0513 26.1694C28.0801 26.3423 28.1665 26.4287 28.3105 26.4287C28.4546 26.4287 28.8579 26.2559 29.5205 25.9102L29.6501 26.1694L27.7056 27.6387L27.792 27.8979C27.792 27.9844 27.4751 28.3157 26.8413 28.8918H26.9277L27.4463 28.7622C27.5903 28.8486 27.7488 28.8918 27.9216 28.8918C28.0081 28.7478 28.0513 28.575 28.0513 28.3733H28.4402V28.5029L28.1809 28.8918V28.9783H28.6562V29.2375C28.0801 29.3528 25.5017 31.1533 20.9211 34.6392C17.4065 37.7217 14.468 40.6746 12.1057 43.4978C8.82153 47.531 7.17944 51.4202 7.17944 55.1653L7.30908 55.6406C7.30908 55.7271 7.26587 55.7703 7.17944 55.7703C7.55396 58.219 7.95728 59.4434 8.3894 59.4434C9.59937 59.4434 11.8608 57.7292 15.1738 54.301C16.8735 51.7083 17.7234 50.0229 17.7234 49.2451V44.7078L18.458 43.8435C18.3716 43.2961 18.3284 42.8496 18.3284 42.5039L18.5876 42.3743C18.6741 42.3743 18.7173 42.4175 18.7173 42.5039L18.9766 42.3743L19.4519 42.5039L20.0569 42.1582H20.3162C21.2957 42.7632 21.7854 43.1233 21.7854 43.2385C22.7937 43.9011 23.3699 44.3477 23.5139 44.5781L24.1189 44.4917C24.4358 44.4917 24.6807 45.0967 24.8535 46.3066L24.7239 46.8252C24.7239 47.3149 24.6807 48.6545 24.5942 50.844C24.9399 53.3792 25.4729 55.7126 26.1931 57.8445C26.0491 57.9309 25.9338 57.9741 25.8474 57.9741C25.9626 58.3198 26.1643 58.4927 26.4524 58.4927V58.8384C26.2795 58.8384 26.1931 58.8816 26.1931 58.968C26.3948 59.5442 26.6396 60.1204 26.9277 60.6965L26.7117 60.8262C26.3948 60.1636 26.1931 59.8323 26.1067 59.8323H25.9771C25.9771 60.0051 26.3804 60.8694 27.187 62.425V62.5115C27.187 63.0876 26.5388 63.3757 25.2424 63.3757C25.2424 63.5486 24.9543 63.635 24.3782 63.635C23.3123 63.4045 22.4912 62.8716 21.915 62.0361C21.4541 61.5176 20.8347 60.3364 20.0569 58.4927C16.4846 61.9209 13.9062 63.635 12.3218 63.635H10.8525C10.0171 63.635 9.0376 63.2605 7.91406 62.5115C4.77393 61.3591 2.80054 59.9331 1.9939 58.2334C1.44653 56.7354 1.17285 55.3813 1.17285 54.1714C1.23047 54.1714 1.25928 54.1282 1.25928 54.0417C1.14404 54.0417 0.985596 53.7537 0.783936 53.1775C0.956787 49.9509 1.36011 48.1504 1.9939 47.7759H2.38281C2.61328 47.3149 2.72852 46.998 2.72852 46.8252L2.51245 46.9116C2.39722 46.9116 2.26758 46.7964 2.12354 46.5659C2.38281 46.5659 2.75732 45.9033 3.24707 44.5781C3.3623 44.5781 3.60718 44.2612 3.98169 43.6274L4.24097 43.7139C4.38501 43.7139 5.40771 42.3743 7.30908 39.6951V39.5654C6.7041 40.2856 6.28638 40.6458 6.05591 40.6458L5.92627 40.4297C9.12402 36.3677 12.6963 32.8818 16.6431 29.9722C17.8242 29.0215 19.0918 28.1284 20.4458 27.293C20.5322 27.437 20.5754 27.5522 20.5754 27.6387L20.3162 28.114L21.4397 27.3794H21.6558V27.6387H21.7854V27.3794C21.699 27.3794 21.6558 27.3506 21.6558 27.293L23.9893 25.6941C24.7383 25.1179 25.689 24.6282 26.8413 24.2249V24.0952H26.7117C26.1643 24.3257 25.833 24.4409 25.7178 24.4409V23.9656C26.2075 23.9656 26.8701 23.5911 27.7056 22.842H27.9216V23.231L27.792 23.447H27.9216C28.2961 23.2166 28.5842 23.1013 28.7859 23.1013L29.0452 23.231C30.3992 22.5684 31.2202 22.2371 31.5083 22.2371C32.5454 21.5745 33.3232 21.2432 33.8418 21.2432ZM29.3909 22.3667V22.4963C29.3909 22.6116 29.074 22.8132 28.4402 23.1013H28.0513V22.7124C28.2529 22.7124 28.6995 22.5972 29.3909 22.3667ZM28.4402 23.5767H28.5266C28.6995 23.5767 28.7859 23.5046 28.7859 23.3606H28.6562C28.5122 23.3606 28.4402 23.4326 28.4402 23.5767ZM27.4463 23.447L27.3167 23.7063V23.8359H27.4463C27.4463 23.6631 27.5327 23.5767 27.7056 23.5767V23.447H27.4463ZM24.5078 24.7002H24.8535V24.9595H24.5078V24.7002ZM23.8596 25.0459C24.0325 25.0747 24.1189 25.1611 24.1189 25.3052C23.3411 25.8237 22.7217 26.3135 22.2607 26.7744C22.1455 26.7744 21.699 27.0193 20.9211 27.509H20.7915V27.293C21.4253 26.8032 21.843 26.5583 22.0447 26.5583C22.0447 26.2703 22.6497 25.7661 23.8596 25.0459ZM27.3167 26.0398H27.187L26.8413 25.7805V26.2991C26.6685 26.3855 26.5388 26.4287 26.4524 26.4287V26.5583H26.7117C27.5759 26.0398 28.0657 25.7805 28.1809 25.7805V25.5645C28.0657 25.5645 27.7776 25.7229 27.3167 26.0398ZM23.2546 28.6326H23.3843C23.5571 28.6326 23.6436 28.5461 23.6436 28.3733V28.2437C23.5283 28.2437 23.3987 28.3733 23.2546 28.6326ZM22.0447 29.2375V29.3672C22.1311 29.3672 22.2463 29.4104 22.3904 29.4968V29.2375H22.0447ZM21.0508 29.6265V29.7129H21.3101V29.9722H21.0508V30.1018H21.1804C21.3245 30.0154 21.4829 29.9722 21.6558 29.9722C21.6558 29.8569 21.4973 29.7417 21.1804 29.6265H21.0508ZM17.1184 30.3611C17.1184 30.5916 16.96 30.7068 16.6431 30.7068V30.8364H16.8591L17.248 30.3611H17.1184ZM20.4458 30.4475L20.3162 30.7068V30.8364H20.4458C20.4458 30.6636 20.5322 30.5771 20.7051 30.5771V30.4475H20.4458ZM21.0508 32.781C21.0796 32.9539 21.166 33.0403 21.3101 33.0403C21.4253 32.7234 21.5405 32.5649 21.6558 32.5649H21.7854C21.9871 32.709 22.1455 32.781 22.2607 32.781C22.6353 32.637 22.8513 32.4785 22.9089 32.3057C22.7361 32.3057 22.6497 32.2192 22.6497 32.0464V31.96C22.8513 31.96 23.1394 31.7871 23.5139 31.4414H23.6436V31.571L23.5139 31.8303H23.9893C23.9893 31.7439 24.0325 31.6143 24.1189 31.4414H23.7732V31.2253C23.8308 30.9661 24.1477 30.7932 24.7239 30.7068C24.7239 30.5339 24.6519 30.4475 24.5078 30.4475C23.9316 30.4763 22.7793 31.2542 21.0508 32.781ZM18.9766 31.571V31.7007C19.0054 31.8735 19.0774 31.96 19.1926 31.96L19.3223 31.7007V31.571H18.9766ZM23.0386 32.176V32.3057H23.125C23.2979 32.3057 23.3843 32.2192 23.3843 32.0464V31.96H23.2546C23.1106 31.96 23.0386 32.032 23.0386 32.176ZM16.8591 32.9106C16.8591 32.9971 16.8303 33.1267 16.7727 33.2996C16.8879 33.2996 17.0464 33.386 17.248 33.5588L17.5073 33.1699V33.0403L17.248 33.1699L16.8591 32.9106ZM16.2542 34.0342H16.3838C16.7007 33.9189 16.8591 33.7893 16.8591 33.6453H16.6431C16.5278 33.6453 16.3982 33.7749 16.2542 34.0342ZM15.0442 34.7688V35.0281H15.3899V34.7688H15.0442ZM14.5256 35.2441V35.6331C14.6985 35.6331 14.7849 35.5466 14.7849 35.3738V35.2441H14.5256ZM14.0503 35.6331C14.0503 35.7195 14.0071 35.8347 13.9207 35.9788H14.0503L14.3096 35.6331H14.0503ZM4.71631 42.5039L4.84595 42.7632L4.58667 42.8928H4.45703V42.7632C4.48584 42.5903 4.57227 42.5039 4.71631 42.5039ZM2.98779 45.7017V45.8313C3.10303 45.8313 3.23267 45.7017 3.37671 45.4424H3.24707C3.07422 45.4712 2.98779 45.5576 2.98779 45.7017ZM63.3994 24.2249L63.5291 24.4841L63.1401 25.4348V25.5645H63.2698V25.3052H63.5291V25.5645L62.0598 28.3301V28.4597H62.1895C63.0249 26.8752 63.6443 25.9102 64.0476 25.5645V25.8237C62.9241 27.7539 61.7717 29.8713 60.5906 32.176V32.3057H60.7202C60.7778 31.96 60.9219 31.7871 61.1523 31.7871H61.282V32.0464L60.9795 32.4353V32.6946L61.5413 32.0464L61.8005 32.176C61.8005 32.0608 61.9302 31.9312 62.1895 31.7871V31.9167C62.1895 32.176 62.0598 32.5217 61.8005 32.9539C61.887 33.1267 61.9302 33.314 61.9302 33.5156H61.8005L61.5413 33.386L61.4116 33.6453C61.6709 33.6453 61.8005 33.7317 61.8005 33.9045C61.3108 34.1062 61.0371 34.3655 60.9795 34.6824C61.1812 34.7112 61.282 34.7976 61.282 34.9417V35.0713C61.282 35.2729 60.749 35.8491 59.6831 36.7998V36.9294L59.9424 36.7998C60.1152 36.8286 60.2017 36.915 60.2017 37.0591C60.0576 37.0591 59.7551 37.6353 59.2942 38.7876C58.9197 39.2197 58.6028 40.0696 58.3435 41.3372L57.825 42.2446H57.9546L58.2139 42.115C58.2139 42.2014 58.2571 42.2446 58.3435 42.2446L56.7446 45.572C56.3701 46.0906 56.1108 46.3499 55.9668 46.3499L56.0964 46.6091C56.0964 47.0701 55.7363 47.603 55.0161 48.208L55.1458 48.4673L53.7197 51.2761H53.3308L53.4604 51.9243C52.3657 52.6445 51.7896 53.3936 51.7319 54.1714C51.7319 54.4595 50.7957 55.8279 48.9231 58.2766C49.0095 58.2766 49.2832 58.1038 49.7441 57.7581V57.8877C48.6494 59.1553 47.4106 60.3508 46.0278 61.4744C46.0278 61.9065 45.4084 62.353 44.1697 62.814C43.2478 63.4189 42.3691 63.7214 41.5337 63.7214C39.7476 63.7214 37.2268 62.6987 33.9714 60.6533C31.6667 58.1758 30.5144 55.2229 30.5144 51.7947C30.5144 48.1072 31.3931 43.9155 33.1504 39.2197C34.1587 37.4336 34.8645 36.5405 35.2678 36.5405C35.6423 36.5405 35.8296 36.4109 35.8296 36.1516L38.0767 36.7998C38.7681 37.4336 39.1138 38.0962 39.1138 38.7876C38.5088 39.7383 38.2063 40.4009 38.2063 40.7754H38.3359C38.1631 43.6274 37.9902 45.5288 37.8174 46.4795C38.019 46.4795 38.1919 46.5227 38.3359 46.6091C37.9614 48.4529 37.7021 49.4756 37.5581 49.6772L37.6877 49.9365V50.7144H37.3853V49.5476H37.2556C37.2556 49.8645 37.1692 50.4839 36.9963 51.4058H37.2556V51.1465H37.5581V51.2761C37.1836 51.5354 36.9963 51.7515 36.9963 51.9243V52.3132H37.126V51.7947H37.3853V53.7825C37.3853 53.9841 37.4429 54.157 37.5581 54.301L37.3853 54.5603C37.5005 54.7332 37.5581 54.8772 37.5581 54.9924C37.4429 54.9924 37.3853 55.0356 37.3853 55.1221C37.5293 55.1221 37.803 56.0439 38.2063 57.8877C38.552 58.3774 38.7249 58.7808 38.7249 59.0977H39.2434C40.9719 58.0894 43.0605 55.9575 45.5093 52.7021L48.9231 47.0413L56.4854 32.8242C59.3374 27.6387 61.0227 24.9883 61.5413 24.873C61.5413 24.9595 61.5845 25.0027 61.6709 25.0027L61.5413 25.3052V25.4348L62.3191 24.7434C62.4631 24.8298 62.636 24.873 62.8376 24.873C62.8376 24.6138 63.0249 24.3977 63.3994 24.2249ZM60.8499 26.083V26.4719H60.9795C61.1235 26.4719 61.2676 26.3423 61.4116 26.083V25.6941H61.282C61.1379 25.6941 60.9939 25.8237 60.8499 26.083ZM60.4609 26.8608V27.293C60.605 27.293 60.7346 27.1489 60.8499 26.8608V26.7312C60.677 26.8176 60.5474 26.8608 60.4609 26.8608ZM59.1646 35.6331C59.1646 35.8347 59.1069 36.0076 58.9917 36.1516H59.1646L59.2942 35.8923V35.6331H59.1646ZM38.5952 44.2324H38.8545V44.3621L38.4656 46.2202H38.2063C38.2063 45.9321 38.3359 45.2695 38.5952 44.2324ZM37.5581 47.9487L37.3853 48.208V48.8562H37.5581C37.5581 48.6257 37.6445 48.3665 37.8174 48.0784L37.5581 47.9487ZM55.0161 49.418H55.1458C54.8865 49.9365 54.7568 50.239 54.7568 50.3254H54.4976V50.0662C54.728 49.634 54.9009 49.418 55.0161 49.418ZM54.1086 50.7144H54.3679V51.0168C54.3679 51.1897 54.2815 51.2761 54.1086 51.2761H53.979C54.0654 51.1033 54.1086 50.916 54.1086 50.7144ZM48.2749 58.968H48.4045C48.5774 58.968 48.6638 58.8672 48.6638 58.6655V58.5359C48.5486 58.5359 48.4189 58.6799 48.2749 58.968ZM47.886 59.2273C47.886 59.4001 47.7996 59.4866 47.6267 59.4866V59.6162H47.886L48.1453 59.2273H47.886ZM77.8757 0.760254C77.9622 0.904297 78.0054 1.06274 78.0054 1.2356L78.2214 1.10596V1.2356C78.0774 1.55249 78.0054 1.84058 78.0054 2.09985H78.0918L78.6968 1.71094L78.8264 1.97021C77.7029 4.85107 77.1411 6.42114 77.1411 6.68042H77.0115L77.1411 6.89648L75.9312 9.70532H76.2769C76.3633 9.12915 76.5361 8.84106 76.7954 8.84106C76.7954 8.9563 76.9106 9.08594 77.1411 9.22998C77.2275 9.05713 77.2708 8.92749 77.2708 8.84106H77.4004C77.5444 8.86987 77.6165 8.9563 77.6165 9.10034C77.2708 9.73413 77.0259 10.051 76.8818 10.051V10.1807C77.0547 10.3823 77.1411 10.5408 77.1411 10.656H77.2708C77.386 10.656 77.5444 10.4111 77.7461 9.92139V9.31641C77.8613 9.31641 78.0198 9.11475 78.2214 8.71143L78.0918 8.49536L79.0857 6.07544C79.0857 5.9314 78.9272 5.77295 78.6104 5.6001C78.4663 5.6001 78.2935 5.75854 78.0918 6.07544C78.207 6.07544 78.4087 6.2771 78.6968 6.68042C78.1494 7.42944 77.7893 7.948 77.6165 8.23608H77.4004V8.02002H77.1411C77.1411 8.48096 77.0547 8.71143 76.8818 8.71143C76.7378 8.71143 76.6658 8.6394 76.6658 8.49536C76.9539 8.03442 77.1987 7.42944 77.4004 6.68042C78.1206 4.83667 78.4807 3.87158 78.4807 3.78516L78.8264 3.52588H78.9561C78.8696 3.87158 78.8264 4.15967 78.8264 4.39014C79.0857 4.39014 79.2153 4.54858 79.2153 4.86548L78.9561 4.99512L79.0857 5.68652H79.3018C79.3306 5.2832 79.6187 4.80786 80.166 4.2605C80.166 4.34692 80.2092 4.39014 80.2957 4.39014C80.1804 4.70703 79.9788 4.9375 79.6907 5.08154C79.6907 5.16797 79.7339 5.21118 79.8203 5.21118C79.561 6.47876 79.2729 7.57349 78.9561 8.49536L79.2153 8.625C79.5034 7.47266 79.8203 6.78125 80.166 6.55078C80.166 6.63721 80.2092 6.68042 80.2957 6.68042C80.2092 7.57349 80.0796 8.13525 79.9067 8.36572H80.2957C80.2957 8.45215 80.2524 8.49536 80.166 8.49536L80.2957 9.10034C79.0857 12.5862 77.8325 16.4177 76.5361 20.595C77.1699 20.595 77.4868 20.6238 77.4868 20.6814L77.7461 20.595C79.3882 20.595 80.915 20.5085 82.3267 20.3357C82.4995 20.4221 82.6292 20.4653 82.7156 20.4653C82.8308 20.3213 83.7959 20.1917 85.6108 20.0764C85.7549 20.1628 85.8701 20.2061 85.9565 20.2061C86.1006 20.1196 86.2734 20.0764 86.4751 20.0764C86.4751 20.2493 86.5471 20.3357 86.6912 20.3357C86.72 20.1628 86.8064 20.0764 86.9504 20.0764H88.0308L88.6357 19.99C88.6357 20.0476 88.679 20.0764 88.7654 20.0764C88.7654 19.9612 89.4856 19.8027 90.926 19.6011V19.7307L93.9509 19.2554C94.095 19.3418 94.2534 19.385 94.4263 19.385C94.4551 19.2122 94.5415 19.1257 94.6855 19.1257H94.8152C94.988 19.1257 95.1465 19.1689 95.2905 19.2554C95.4346 19.1689 95.593 19.1257 95.7659 19.1257L96.0251 19.2554C96.0251 19.1401 96.1404 19.0105 96.3708 18.8665C96.5149 18.9529 96.6301 18.9961 96.7166 18.9961C96.7454 18.8521 96.8318 18.78 96.9758 18.78H97.3215L97.2351 18.9961H97.5808C97.5808 18.7656 98.4307 18.5208 100.13 18.2615C100.274 18.3479 100.433 18.3911 100.606 18.3911C100.865 18.3911 101.225 18.2327 101.686 17.9158C101.686 18.0886 101.801 18.175 102.032 18.175C102.262 18.175 102.55 18.0454 102.896 17.7861C103.069 17.7861 103.227 17.8293 103.371 17.9158C103.544 17.8293 103.674 17.7861 103.76 17.7861L103.976 17.9158C104.668 17.5413 105.474 17.2676 106.396 17.0947C106.396 17.0083 106.483 16.9651 106.656 16.9651C106.684 17.1091 106.756 17.1812 106.872 17.1812C107.131 17.1812 107.664 17.0227 108.47 16.7058C108.615 16.7922 108.773 16.8354 108.946 16.8354H109.205V16.7058C109.119 16.5618 109.075 16.4465 109.075 16.3601H109.205C109.378 16.3601 109.536 16.4033 109.68 16.4897L113.915 15.3662H114.045L113.915 15.1501V15.0205C114.059 15.0493 114.131 15.1357 114.131 15.2798L114.391 15.1501L114.65 15.2798C116.407 14.7036 118.208 14.2139 120.052 13.8105H120.44V13.4648H120.916C121.722 13.3208 122.126 13.1479 122.126 12.9463L122.471 13.2056C122.904 12.9751 123.552 12.7302 124.416 12.4709V12.3413L125.021 12.4709C126.375 11.9812 127.427 11.7075 128.176 11.6499C128.176 11.5635 128.262 11.5203 128.435 11.5203L128.651 11.6499L129.861 11.1313H130.12L130.466 11.3906H130.595L130.466 11.1313C130.898 10.9873 131.301 10.7856 131.676 10.5264H132.021C132.021 10.4111 132.151 10.2959 132.41 10.1807C132.41 10.2959 132.526 10.4111 132.756 10.5264C132.756 10.3823 132.886 10.3103 133.145 10.3103L133.75 10.4399C133.75 10.2671 133.822 10.1807 133.966 10.1807C134.139 10.2671 134.269 10.3103 134.355 10.3103L134.96 9.83496H135.046L134.96 10.051V10.1807H135.046C136.4 9.74854 137.293 9.38843 137.726 9.10034L138.331 9.22998C138.359 9.05713 138.446 8.9707 138.59 8.9707L138.806 9.10034H138.936V8.9707H138.676V8.71143L139.541 8.84106H139.67L139.541 8.625V8.49536L140.621 8.10645V8.23608L140.491 8.49536H141.096C141.355 8.26489 142.364 7.97681 144.121 7.6311C144.15 7.51587 145.201 7.19897 147.276 6.68042C147.304 6.50757 147.391 6.42114 147.535 6.42114L147.751 6.55078C148.154 6.37793 149.696 5.97461 152.375 5.34082C152.375 5.25439 152.404 5.21118 152.461 5.21118H153.455L154.06 5.34082V4.86548C154.175 4.86548 154.651 4.73584 155.486 4.47656H155.961V4.6062L155.875 4.86548H155.961C156.97 4.54858 157.618 4.39014 157.906 4.39014V4.47656C157.82 4.70703 156.336 5.15356 153.455 5.81616L144.726 8.23608V8.49536H144.856C145.605 8.23608 146.051 8.10645 146.195 8.10645V8.23608L146.671 8.02002C146.815 8.07764 146.93 8.10645 147.016 8.10645C147.42 7.90479 147.621 7.74634 147.621 7.6311L148.226 7.76074C148.63 7.44385 148.918 7.2854 149.091 7.2854L149.696 7.41504C149.724 7.24219 149.811 7.15576 149.955 7.15576L150.171 7.2854C150.171 7.02612 150.704 6.82446 151.77 6.68042H151.986V7.02612H152.375L152.245 6.42114H152.98L153.671 5.9458H153.801L154.06 6.07544C154.089 5.90259 154.161 5.81616 154.276 5.81616H154.406C154.406 6.01782 154.492 6.21948 154.665 6.42114L154.276 6.89648C154.363 6.89648 154.406 6.9397 154.406 7.02612H154.276C154.132 7.02612 154.06 6.91089 154.06 6.68042C153.887 6.70923 153.801 6.78125 153.801 6.89648C153.974 6.98291 154.103 7.02612 154.19 7.02612C154.19 7.31421 153.614 7.47266 152.461 7.50146C152.548 7.35742 152.591 7.24219 152.591 7.15576H152.461C152.346 7.24219 152.115 7.2854 151.77 7.2854C151.77 7.42944 151.885 7.50146 152.115 7.50146V7.76074L151.51 7.89038L151.381 7.6311C151.381 7.54468 151.424 7.50146 151.51 7.50146L151.381 7.2854V7.15576H151.77V7.02612C151.683 7.02612 151.554 6.98291 151.381 6.89648C151.15 7.06934 150.877 7.15576 150.56 7.15576V7.41504C150.733 7.41504 150.963 7.53027 151.251 7.76074H151.381L151.165 8.10645C151.222 8.2793 151.251 8.40894 151.251 8.49536C150.329 8.72583 149.724 8.92749 149.436 9.10034C149.292 9.10034 149.22 9.01392 149.22 8.84106C150.43 8.46655 151.035 8.22168 151.035 8.10645H150.56V7.89038H150.776V7.6311H150.646C150.128 8.20728 149.566 8.49536 148.961 8.49536C148.875 8.32251 148.831 8.19287 148.831 8.10645H148.745L148.356 8.36572L148.14 8.23608L148.01 8.49536H148.356V8.71143C146.916 9.14355 146.195 9.43164 146.195 9.57568H146.325L147.146 9.44604V9.57568C147.146 9.71973 146.498 9.9646 145.201 10.3103C145.201 10.3967 145.129 10.4399 144.985 10.4399C144.726 10.4399 144.596 10.2671 144.596 9.92139H144.38C144.035 10.4976 143.703 10.7856 143.386 10.7856V10.656C143.07 10.8289 142.796 10.9153 142.565 10.9153V10.656C143.17 10.512 143.531 10.4399 143.646 10.4399L143.516 10.1807C139.08 11.3906 136.833 12.082 136.775 12.2549C138.647 11.8516 140.419 11.3618 142.09 10.7856C142.09 10.8721 142.45 11.1169 143.17 11.5203C142.882 11.6643 142.393 11.8228 141.701 11.9956V11.866L141.485 11.9956H141.01C141.125 11.7075 141.644 11.5491 142.565 11.5203C142.565 11.3474 142.479 11.261 142.306 11.261H141.701C140.952 11.5203 140.477 11.6499 140.275 11.6499H140.016C140.016 11.9092 139.368 12.1396 138.071 12.3413C138.071 12.5142 137.841 12.6006 137.38 12.6006L137.466 12.8599C137.841 12.687 138.374 12.6006 139.065 12.6006H139.281C139.281 12.2837 139.526 12.1252 140.016 12.1252H140.621V12.3413H140.405C140.146 12.3413 139.656 12.5142 138.936 12.8599C138.302 12.8599 137.293 13.1768 135.911 13.8105C135.104 13.8105 134.701 13.9258 134.701 14.1562C134.557 14.0986 134.441 14.0698 134.355 14.0698L133.836 14.2859C133.836 14.1418 133.764 14.0698 133.62 14.0698C133.62 14.3579 133.174 14.5596 132.281 14.6748L132.021 14.5452H131.935V14.6748H132.151C132.151 14.8188 132.079 14.8909 131.935 14.8909L131.33 14.7612C131.301 14.8765 130.898 15.1213 130.12 15.4958C130.12 15.4094 130.077 15.3662 129.99 15.3662C129.904 15.5391 129.861 15.6687 129.861 15.7551H129.731C129.731 15.5823 129.688 15.4958 129.602 15.4958L129.385 15.6255L129.126 15.4958C129.04 15.4958 128.838 15.6975 128.521 16.1008C128.521 15.9568 128.449 15.8848 128.305 15.8848H127.916C127.599 16.1152 126.879 16.3457 125.756 16.5762C125.669 16.2593 125.511 16.1008 125.28 16.1008C125.107 16.1873 124.978 16.2305 124.891 16.2305V16.3601C125.237 16.3601 125.41 16.4321 125.41 16.5762C124.92 16.7778 124.675 16.9507 124.675 17.0947H124.805L124.675 17.3108V17.4404C127.556 16.7202 129.846 16.0288 131.546 15.3662C131.633 15.3662 131.676 15.4094 131.676 15.4958C132.31 15.179 132.756 15.0205 133.015 15.0205L133.231 15.1501C133.231 14.9773 134.614 14.5308 137.38 13.8105C146.829 11.0737 152.303 9.54687 153.801 9.22998V9.44604L139.8 13.4648C138.647 13.7817 137.999 14.0122 137.855 14.1562C137.481 14.1562 135.507 14.6892 131.935 15.7551C131.676 15.8992 130.135 16.3457 127.311 17.0947C127.196 17.0947 126.793 17.282 126.101 17.6565C125.957 17.5989 125.842 17.5701 125.756 17.5701C125.669 17.7141 125.626 17.8293 125.626 17.9158L125.021 17.7861H124.891V17.9158H125.151V18.175C123.134 18.5496 122.01 18.9097 121.78 19.2554C121.607 19.1689 121.478 19.1257 121.391 19.1257C121.074 19.4138 119.706 19.8604 117.286 20.4653C117.286 20.5518 117.243 20.595 117.156 20.595C117.012 20.5085 116.897 20.4653 116.811 20.4653L116.681 20.6814L116.076 20.595C115.817 20.595 115.543 20.7534 115.255 21.0703C115.082 20.9839 114.952 20.9407 114.866 20.9407L114.736 21.2L114.52 21.0703H114.261C114.261 21.3008 114.189 21.416 114.045 21.416H113.786L113.181 21.2864C113.181 21.4592 112.979 21.6321 112.576 21.8049L111.841 21.6753C110.775 22.3955 106.108 23.519 97.8401 25.0459C95.8235 25.4492 93.2019 25.8525 89.9753 26.2559V26.1262C85.2795 26.8752 80.3533 27.2498 75.1965 27.2498H74.9805C74.6924 27.5378 73.8857 30.3899 72.5605 35.8059C68.6714 48.0496 65.5601 56.5913 63.2266 61.4312C63.0249 62.1514 62.5063 62.8428 61.6709 63.5054H61.4116C60.605 63.5054 60.2017 63.4189 60.2017 63.2461L59.9856 63.3757H59.856L57.6953 62.5547C57.6089 62.5547 57.4792 62.5835 57.3064 62.6411C56.7302 62.6411 56.1685 62.2378 55.6211 61.4312C57.5513 57.3691 58.9629 54.0706 59.856 51.5354L62.0166 45.8313C62.0166 45.6296 62.4631 44.3909 63.3562 42.115C64.4797 38.7444 65.6465 34.668 66.8564 29.8857C67.0005 29.8857 67.3318 28.9639 67.8503 27.1201C63.9612 26.4575 61.3828 25.6509 60.1152 24.7002C59.7119 24.7002 58.6172 23.8936 56.8311 22.2803V21.8914H57.0903V21.6753C56.687 21.0703 56.4421 20.3069 56.3557 19.385C56.2693 19.385 56.2261 19.3418 56.2261 19.2554L56.3557 18.9961C56.2693 18.8521 56.2261 18.6936 56.2261 18.5208H56.3557L56.2261 18.2615V18.175C56.3125 16.9651 56.5574 16.3601 56.9607 16.3601L62.6216 18.9961L66.2515 19.99L66.5107 19.8604C66.9717 20.0044 67.98 20.2061 69.5356 20.4653C69.939 19.4282 70.3423 18.1318 70.7456 16.5762C71.293 14.3579 71.97 12.2261 72.7766 10.1807C72.8918 9.54687 73.0935 9.22998 73.3816 9.22998C73.3816 9.14355 73.3528 9.10034 73.2952 9.10034C73.2952 8.32251 73.6121 7.6311 74.2458 7.02612L74.1162 6.81006C74.6636 6.40674 75.0237 6.20508 75.1965 6.20508C75.1965 5.9458 75.1677 5.81616 75.1101 5.81616C75.1101 5.64331 75.2253 5.16797 75.4558 4.39014H76.0608C76.5793 2.74805 77.1843 1.53809 77.8757 0.760254ZM78.9561 2.79126H79.2153V3.18018H78.6968V3.05054C78.7256 2.87769 78.812 2.79126 78.9561 2.79126ZM159.505 3.39624V3.65552C158.929 3.79956 158.597 3.87158 158.511 3.87158L158.381 3.65552C158.756 3.48267 159.13 3.39624 159.505 3.39624ZM160.11 3.78516H160.456V4.00122H159.851C159.879 3.85718 159.966 3.78516 160.11 3.78516ZM159.721 4.00122C159.721 4.20288 159.246 4.36133 158.295 4.47656L158.165 4.2605C158.972 4.08765 159.49 4.00122 159.721 4.00122ZM161.406 4.13086H161.666C161.666 4.33252 161.305 4.44775 160.585 4.47656V4.2605L161.406 4.13086ZM154.406 5.08154V5.21118H154.535C155.169 5.12476 155.486 5.00952 155.486 4.86548H155.356C155.299 4.86548 154.982 4.9375 154.406 5.08154ZM159.116 4.73584V4.99512L158.9 4.86548C158.9 5.00952 158.813 5.08154 158.641 5.08154H158.511C158.367 5.08154 158.295 5.00952 158.295 4.86548L159.116 4.73584ZM158.295 4.99512L158.036 5.34082C158.122 5.48486 158.165 5.6001 158.165 5.68652H158.036L157.69 5.47046H157.301L157.431 5.68652V5.81616H157.171C157.056 5.81616 156.941 5.70093 156.826 5.47046C156.999 5.29761 157.488 5.13916 158.295 4.99512ZM156.48 5.34082L156.696 5.9458L156.35 6.20508H156.221C156.048 6.20508 155.961 6.11865 155.961 5.9458H156.48V5.81616H155.961C155.961 5.98901 155.889 6.07544 155.745 6.07544C155.573 6.07544 155.486 5.98901 155.486 5.81616C155.486 5.67212 155.817 5.51367 156.48 5.34082ZM154.665 5.81616H155.27C155.27 6.13306 155.342 6.2915 155.486 6.2915H156.48V6.42114C156.48 6.59399 156.105 6.72363 155.356 6.81006V6.68042L155.486 6.42114C155.054 6.42114 154.78 6.2627 154.665 5.9458V5.81616ZM154.06 6.20508L153.93 6.42114V6.55078C154.074 6.46436 154.233 6.42114 154.406 6.42114V6.2915C154.319 6.2915 154.204 6.2627 154.06 6.20508ZM78.0054 6.2915L77.8757 6.89648C77.991 6.89648 78.1494 6.73804 78.3511 6.42114L78.0918 6.2915H78.0054ZM152.72 6.68042V6.89648C152.893 6.89648 152.98 6.98291 152.98 7.15576H153.325C153.498 7.15576 153.585 7.06934 153.585 6.89648C153.412 6.89648 153.325 6.82446 153.325 6.68042H153.671V6.42114C153.441 6.59399 153.124 6.68042 152.72 6.68042ZM155.27 7.02612H155.486V7.2854H155.011C155.04 7.11255 155.126 7.02612 155.27 7.02612ZM77.6165 7.2854C77.6165 7.40063 77.5444 7.55908 77.4004 7.76074V7.89038C77.5156 7.89038 77.6741 7.73193 77.8757 7.41504L77.6165 7.2854ZM147.276 8.23608C147.362 8.23608 147.477 8.2793 147.621 8.36572H147.751V8.23608C147.607 8.23608 147.535 8.16406 147.535 8.02002C147.362 8.04883 147.276 8.12085 147.276 8.23608ZM141.096 8.02002H141.226V8.10645C141.226 8.2793 141.154 8.36572 141.01 8.36572L140.88 8.10645L141.096 8.02002ZM143.991 8.49536C144.078 8.6394 144.121 8.79785 144.121 8.9707H144.251C144.251 8.82666 144.366 8.625 144.596 8.36572H144.38C144.208 8.45215 144.078 8.49536 143.991 8.49536ZM146.8 8.36572L146.93 8.625C147.074 8.53857 147.189 8.49536 147.276 8.49536V8.36572H146.8ZM147.535 8.71143H147.621C147.794 8.71143 147.881 8.6394 147.881 8.49536H147.751C147.607 8.52417 147.535 8.59619 147.535 8.71143ZM152.85 8.36572H153.196V8.625H152.85V8.36572ZM78.4807 9.92139C78.7112 9.92139 78.9128 9.51807 79.0857 8.71143H78.9561C78.7256 8.71143 78.5671 9.11475 78.4807 9.92139ZM142.177 9.22998L143.646 8.84106V8.71143H143.516C142.623 8.82666 142.177 8.99951 142.177 9.22998ZM146.195 9.10034H146.411C146.584 9.01392 146.714 8.9707 146.8 8.9707V8.84106H146.411C146.267 8.86987 146.195 8.9563 146.195 9.10034ZM151.986 8.71143L152.115 8.9707L151.77 9.22998H150.906C150.906 9.08594 151.266 8.91309 151.986 8.71143ZM148.486 8.9707H148.961C148.961 9.14355 148.889 9.22998 148.745 9.22998H148.486V8.9707ZM141.096 9.31641V9.57568H141.226L141.485 9.44604C141.629 9.53247 141.788 9.57568 141.96 9.57568H142.09C142.09 9.46045 141.932 9.34521 141.615 9.22998C141.615 9.2876 141.572 9.31641 141.485 9.31641V9.22998C141.312 9.2876 141.183 9.31641 141.096 9.31641ZM149.825 9.22998H149.955C150.099 9.22998 150.171 9.302 150.171 9.44604V9.57568H149.825V9.22998ZM133.62 11.5203V11.6499H133.966C134.254 11.4771 134.787 11.3042 135.565 11.1313C135.565 11.2466 135.68 11.3762 135.911 11.5203H136.04C135.867 11.3186 135.781 11.189 135.781 11.1313C136.04 10.9873 136.285 10.9153 136.516 10.9153L137.121 11.0449L136.991 10.7856L140.75 9.70532V9.44604L133.62 11.5203ZM148.615 9.57568H149.091C149.091 9.74854 149.004 9.83496 148.831 9.83496H148.615V9.57568ZM142.09 9.83496V10.051C142.349 10.051 142.551 10.0942 142.695 10.1807V9.92139L142.09 9.83496ZM72.9062 10.4399V11.0449H73.0359L73.1655 10.4399H72.9062ZM140.621 10.4399C140.65 10.584 140.736 10.656 140.88 10.656H141.01C141.01 10.512 140.923 10.4399 140.75 10.4399H140.621ZM132.886 10.5264V10.656H133.361V10.5264H132.886ZM145.331 10.5264H145.72C145.72 10.6992 145.634 10.7856 145.461 10.7856H145.331V10.5264ZM77.0115 11.0449V11.261C77.1843 11.1746 77.314 11.1313 77.4004 11.1313V10.7856H77.2708C77.0979 10.8145 77.0115 10.9009 77.0115 11.0449ZM75.5854 10.9153V11.261C75.7295 11.261 75.8015 11.189 75.8015 11.0449V10.9153H75.5854ZM144.726 10.7856V11.0449L144.121 11.1313C144.121 10.9585 144.323 10.8433 144.726 10.7856ZM143.3 11.1313H143.905V11.3906C143.617 11.4771 143.444 11.5203 143.386 11.5203L143.3 11.261V11.1313ZM131.546 12.1252V12.2549H131.805C131.949 12.2549 132.194 12.1685 132.54 11.9956C132.684 12.082 132.799 12.1252 132.886 12.1252L133.015 11.866H132.756C132.554 11.866 132.151 11.9524 131.546 12.1252ZM127.7 11.9956V12.1252H128.176V11.9956H127.7ZM130.12 12.7302H130.466L130.812 12.4709C130.984 12.5574 131.114 12.6006 131.2 12.6006L131.33 12.3413C131.157 12.3413 131.071 12.3125 131.071 12.2549C130.437 12.4277 130.12 12.5862 130.12 12.7302ZM135.046 12.8599H135.176C135.349 12.8599 135.435 12.7734 135.435 12.6006H135.306C135.133 12.6294 135.046 12.7158 135.046 12.8599ZM136.645 12.8599C136.645 12.7734 136.602 12.7302 136.516 12.7302C136.516 12.8743 135.666 13.1479 133.966 13.5513V13.8105H134.355C134.557 13.6665 135.522 13.3496 137.25 12.8599V12.6006H136.991L136.645 12.8599ZM130.941 13.9402H131.33V13.6809H131.2C131.028 13.7097 130.941 13.7961 130.941 13.9402ZM132.281 13.9402V14.1562L133.491 14.0698V13.9402C133.404 13.9402 133.289 13.897 133.145 13.8105C132.828 13.897 132.54 13.9402 132.281 13.9402ZM75.8015 14.0698V14.4155H76.1904V14.0698H75.8015ZM129.126 14.8909V15.0205H129.385C129.674 15.0205 130.552 14.7756 132.021 14.2859V14.1562H131.676C131.215 14.4155 130.365 14.6604 129.126 14.8909ZM128.91 14.5452H129.126C129.299 14.4587 129.429 14.4155 129.515 14.4155V14.2859H129.126C128.982 14.3147 128.91 14.4011 128.91 14.5452ZM126.101 15.2798V15.4958L126.966 15.3662L126.836 15.1501L126.101 15.2798ZM125.496 15.3662V15.4958H126.015L125.885 15.2798C125.712 15.3374 125.583 15.3662 125.496 15.3662ZM128.046 15.4958H128.305C128.449 15.4958 128.521 15.4238 128.521 15.2798H128.305C128.132 15.2798 128.046 15.3518 128.046 15.4958ZM126.62 15.6255V15.8848C126.879 15.8848 127.081 15.9136 127.225 15.9712C127.225 15.7407 127.455 15.6255 127.916 15.6255V15.3662H127.83C127.254 15.5391 126.85 15.6255 126.62 15.6255ZM123.811 15.8848V15.9712H124.286C124.459 15.9712 124.546 15.8992 124.546 15.7551C124.459 15.7551 124.416 15.7119 124.416 15.6255C124.157 15.7983 123.955 15.8848 123.811 15.8848ZM125.756 15.9712V16.1008C125.928 16.1008 126.087 16.0576 126.231 15.9712L126.49 16.1008H126.62V15.9712C126.361 15.9712 126.231 15.856 126.231 15.6255C125.914 15.7407 125.756 15.856 125.756 15.9712ZM122.126 16.9651V17.0947H122.255L123.811 16.7058C123.984 16.7922 124.114 16.8354 124.2 16.8354V16.9651C124.2 17.1091 124.114 17.1812 123.941 17.1812C123.768 17.1812 123.609 17.1523 123.465 17.0947L122.731 17.4404L122.471 17.3108C122.471 17.426 122.27 17.5845 121.866 17.7861H121.65L121.391 17.6565C121.391 17.8293 121.189 17.9158 120.786 17.9158L120.916 18.175L120.656 18.2615C120.656 18.1174 120.584 18.0454 120.44 18.0454C120.268 18.1318 120.138 18.175 120.052 18.175C120.224 18.3767 120.311 18.5352 120.311 18.6504H120.57L120.44 18.3911V18.2615L121.045 18.3911C121.189 18.3911 121.261 18.3191 121.261 18.175L121.521 18.2615H121.78L121.65 18.0454L121.866 17.9158C121.895 18.0886 121.982 18.175 122.126 18.175H122.385L122.255 17.9158L122.471 17.7861V18.0454C123.509 17.8437 124.2 17.5557 124.546 17.1812L124.416 16.9651L124.805 16.3601H124.2V16.7058H124.07V16.3601L122.126 16.9651ZM120.052 17.6565H120.57C120.714 17.6565 120.786 17.5845 120.786 17.4404H120.311C120.138 17.4692 120.052 17.5413 120.052 17.6565ZM116.94 18.3911V18.5208H117.416V18.2615H117.286C117.142 18.3479 117.027 18.3911 116.94 18.3911ZM119.706 18.3911V18.5208C119.735 18.6936 119.821 18.78 119.965 18.78H120.052V18.3911H119.706ZM118.755 18.5208C118.755 18.6936 118.712 18.8521 118.625 18.9961H118.971V18.78L119.23 18.8665H119.576V18.78C119.576 18.6072 119.504 18.5208 119.36 18.5208H118.755ZM118.15 18.78C118.15 18.9241 118.064 18.9961 117.891 18.9961C117.92 19.1689 118.006 19.2554 118.15 19.2554H118.366V19.1257L118.237 18.8665C118.323 18.8665 118.366 18.8376 118.366 18.78H118.15ZM114.045 19.8604L114.131 20.0764C113.987 20.1628 113.872 20.2061 113.786 20.2061C113.814 20.3789 113.901 20.4653 114.045 20.4653C114.909 20.1196 115.471 19.8315 115.73 19.6011C115.932 19.6011 116.162 19.6875 116.422 19.8604L116.551 19.6011C116.465 19.6011 116.422 19.5579 116.422 19.4714L117.027 19.6011L117.761 19.385C117.761 19.2122 117.689 19.1257 117.545 19.1257H117.416L117.027 19.385C117.027 19.2122 116.998 19.1257 116.94 19.1257C116.767 19.2122 116.638 19.2554 116.551 19.2554V19.1257C115.284 19.6155 114.448 19.8604 114.045 19.8604ZM112.446 20.4653C112.475 20.6094 112.561 20.6814 112.705 20.6814C113.281 20.6814 113.598 20.5662 113.656 20.3357L113.051 20.2061V20.4653H112.921V20.2061H112.705C112.532 20.2349 112.446 20.3213 112.446 20.4653ZM111.495 20.595V20.6814L112.23 20.811C112.23 20.6958 112.1 20.5806 111.841 20.4653C111.697 20.5518 111.582 20.595 111.495 20.595ZM87.7715 31.1389H89.6729C94.2534 31.1389 97.8545 33.1987 100.476 37.3184C101.283 39.1333 101.873 40.8906 102.248 42.5903L102.075 43.3682V44.0164C102.075 44.2468 102.133 44.4629 102.248 44.6646C101.816 47.2573 101.023 49.7493 99.8711 52.1404C99.8711 53.1487 99.1221 54.6899 97.624 56.7642C96.7021 56.937 95.593 57.7292 94.2966 59.1409C93.3171 59.573 92.0352 60.3076 90.4507 61.3447H90.6235C91.9487 60.9414 92.741 60.7397 93.0002 60.7397V61.0422L85.5244 63.5918C83.5366 63.5918 81.4768 62.8428 79.345 61.3447C78.5095 60.5381 77.5012 59.1121 76.3201 57.0667C76.3201 56.9226 75.7295 55.439 74.5483 52.6157C74.4331 51.3481 74.2747 50.7144 74.073 50.7144C74.073 46.8828 76.0896 43.7427 80.1228 41.2939C81.592 40.6313 82.9749 40.156 84.2712 39.8679C84.2712 39.7527 84.3145 39.6951 84.4009 39.6951C85.7549 39.9832 86.6624 40.5161 87.1233 41.2939C87.1233 41.4956 87.3826 42.0286 87.9011 42.8928V43.3682C87.9011 43.9731 87.325 44.7222 86.1726 45.6152C86.3743 45.644 86.4751 45.7449 86.4751 45.9177C85.6685 46.321 84.9771 47.0701 84.4009 48.1648V48.4673H84.5737L85.3948 47.9919H85.9998L82.6724 50.3687C81.4912 51.6074 80.7422 52.8318 80.4253 54.0417C80.4253 54.2722 80.8574 54.5891 81.7217 54.9924H82.4995C84.4297 54.9924 87.1377 54.1426 90.6235 52.4429C93.1011 50.5991 94.8584 48.5825 95.8955 46.3931C96.6157 45.0679 97.1343 43.2673 97.4512 40.9915V39.8679C96.7021 38.6868 95.0601 37.7937 92.5249 37.1887C91.5742 37.1887 90.782 37.0735 90.1482 36.843L87.4258 37.1887V36.843C87.5698 36.843 88.1604 36.7422 89.1975 36.5405H91.9199L92.6978 36.6702L92.8706 36.3677L92.5249 36.1948C91.6318 36.3101 90.8972 36.3677 90.321 36.3677L87.9011 35.5898H87.5986C87.3682 35.5898 87.1521 35.6331 86.9504 35.7195C86.7776 35.6331 86.5759 35.5898 86.3455 35.5898L85.5244 35.7195C84.9482 34.9993 84.5305 34.6392 84.2712 34.6392C83.8391 34.4663 83.623 34.3079 83.623 34.1638C83.623 34.0486 83.8391 33.7173 84.2712 33.1699C84.2712 32.7378 83.9976 32.3201 83.4502 31.9167C84.7178 31.3982 86.1582 31.1389 87.7715 31.1389ZM121.737 34.1638V34.2935C121.622 34.5815 121.319 34.7256 120.829 34.7256V35.0281H121.132C121.391 34.8264 122.212 34.5815 123.595 34.2935L124.33 34.4663C124.387 34.4663 124.589 34.4087 124.935 34.2935C125.856 34.2935 127.455 34.884 129.731 36.0652C130.509 36.7278 130.898 37.1167 130.898 37.2319C130.812 37.4048 130.768 37.5488 130.768 37.6641C131.517 38.1538 132.583 39.1189 133.966 40.5593C135.291 39.1765 137.38 37.8657 140.232 36.627L140.967 36.4973V36.627C141.399 36.2524 142.465 35.8635 144.164 35.4602V35.6331L145.029 35.3306C145.201 35.417 145.345 35.4602 145.461 35.4602C146.152 35.3738 146.541 35.3306 146.627 35.3306C146.743 35.3306 147.333 35.5178 148.399 35.8923C148.399 35.7483 148.586 35.6042 148.961 35.4602C150.689 36.1804 152.245 36.915 153.628 37.6641C154.636 38.0098 155.558 38.5427 156.394 39.2629C157.604 39.551 158.958 41.0059 160.456 43.6274C161.521 44.8662 162.112 45.5432 162.227 45.6584C162.717 47.0701 162.962 47.9487 162.962 48.2944C162.847 48.2944 162.789 48.3376 162.789 48.4241C162.991 48.4241 163.092 48.5681 163.092 48.8562C162.89 49.0579 162.746 50.0806 162.659 51.9243C161.565 54.5459 158.122 57.8445 152.332 61.8201C147.146 65.3635 142.522 68.1868 138.46 70.2898C134.802 72.7961 131.604 75.1729 128.867 77.4199C122.01 84.0171 118.265 88.0935 117.632 89.6492C116.22 91.6082 115.442 92.5876 115.298 92.5876H114.866V92.7173L115.168 93.1494H114.996L114.736 93.0198H114.304C114.304 92.7893 114.103 92.6453 113.699 92.5876V92.1555H113.397C113.397 92.4436 113.31 92.5876 113.137 92.5876H112.965V92.4148C112.965 92.2419 113.166 91.7666 113.57 90.9888L113.267 91.1184C113.065 91.1184 112.965 91.0176 112.965 90.8159C114.031 89.1738 114.664 88.3528 114.866 88.3528V88.2231C114.29 88.2231 114.002 88.0791 114.002 87.791L115.298 86.0193L115.601 86.1489C115.601 85.5439 116.134 84.6797 117.199 83.5562H117.329V83.6858L116.897 84.2908V84.7229H117.07C117.214 84.7229 117.459 84.4348 117.804 83.8586V83.3833C117.488 83.3833 117.329 83.2969 117.329 83.124C119.173 80.6753 120.34 79.4509 120.829 79.4509V79.7534H121.132L120.829 79.3213C121.146 78.8027 121.881 77.9241 123.033 76.6853V76.5557H122.904C122.702 76.6421 122.543 76.6853 122.428 76.6853C122.428 76.5413 122.774 76.21 123.465 75.6914L123.768 75.821H123.897V75.6914H123.595C123.624 75.4897 123.725 75.3889 123.897 75.3889L124.2 75.5186H124.33V75.3889H124.027V75.0864C124.027 74.9136 124.186 74.8271 124.502 74.8271V74.5247C123.321 75.3313 122.731 75.8066 122.731 75.9507C121.521 77.0454 120.887 77.5928 120.829 77.5928H120.7V77.4199L120.829 77.1174H120.7C120.584 77.1174 120.152 77.564 119.403 78.457V78.5867H119.663V78.8892C119.375 79.3789 118.597 80.2576 117.329 81.5251L116.638 80.9202C116.724 80.8049 116.767 80.5601 116.767 80.1855H116.638V80.0559C116.638 79.8542 116.825 79.7534 117.199 79.7534L117.07 79.4509C117.07 79.3069 117.646 78.918 118.798 78.2842C119.576 77.6216 120.599 76.5125 121.866 74.9568H121.737L121.434 75.0864L121.261 74.8271C121.578 74.7119 121.881 74.3662 122.169 73.79H122.428V73.6604L122.299 73.3579C122.587 73.1562 122.932 73.0122 123.336 72.9258L123.163 72.6233L124.027 72.0183C123.941 72.0183 123.897 71.9751 123.897 71.8887C125.194 71.0244 125.928 70.5923 126.101 70.5923C127.081 69.8433 127.945 69.0078 128.694 68.0859C129.414 67.5674 130.581 66.8472 132.194 65.9253C132.194 65.522 132.785 64.989 133.966 64.3264H133.534V64.1536C134.974 63.0876 135.896 62.5547 136.3 62.5547V62.7275L136.559 62.5547L137.164 62.7275L139.065 61.6904C140.073 60.8262 140.707 60.394 140.967 60.394V60.2212H140.362V59.9619C140.592 59.9619 141.802 59.1841 143.991 57.6284L147.924 55.1221C148.039 55.1221 148.198 55.0789 148.399 54.9924C148.543 55.0789 148.73 55.1221 148.961 55.1221C149.508 54.6323 149.897 54.2002 150.128 53.8257C150.819 53.8257 151.165 53.4368 151.165 52.6589H151.424V53.0911H151.597C151.741 53.0911 151.885 52.947 152.029 52.6589L151.727 52.2268C151.727 52.1404 152.303 51.6506 153.455 50.7576H153.628L153.93 50.9304C153.93 50.6711 154.118 50.4695 154.492 50.3254C154.492 49.7493 154.694 49.4612 155.097 49.4612C155.673 48.885 155.961 48.4529 155.961 48.1648C156.134 48.1648 156.379 47.6174 156.696 46.5227C156.927 46.5227 157.171 46.0474 157.431 45.0967C157.431 43.9155 155.184 43.0369 150.689 42.4607C150.286 42.4607 149.753 42.4175 149.091 42.3311C146.527 42.5039 144.049 43.325 141.658 44.7942C138.979 46.5803 136.703 48.9138 134.83 51.7947C134.197 52.5725 133.462 53.7393 132.626 55.2949L132.799 55.5542L130.898 60.2212C130.639 60.2212 130.106 60.5669 129.299 61.2583H128.867C127.11 59.7603 126.231 58.7375 126.231 58.1902C126.231 57.614 126.087 57.3259 125.799 57.3259C125.799 57.5276 125.698 57.6284 125.496 57.6284H125.194C125.194 57.2251 124.805 56.3464 124.027 54.9924C124.229 54.301 124.574 53.5664 125.064 52.7886C124.978 52.6445 124.935 52.4573 124.935 52.2268C125.251 52.1116 125.684 51.521 126.231 50.4551L126.101 50.1958C126.505 50.0806 126.937 49.5476 127.398 48.5969C127.311 48.5969 127.268 48.5393 127.268 48.4241L127.83 47.9919L127.7 47.6895V47.5598L129.126 43.0657L129.299 42.3311C129.126 40.8618 128.925 40.1272 128.694 40.1272C124.142 40.1272 118.755 44.5061 112.532 53.2639C112.532 53.408 112.201 54.0273 111.539 55.1221L109.767 59.7891L110.199 60.5237L110.069 61.1287C110.156 61.3015 110.199 61.4888 110.199 61.6904L109.464 62.1226H109.032C108.946 62.1226 108.903 62.0793 108.903 61.9929C108.701 62.0793 108.557 62.1226 108.47 62.1226C108.355 62.1226 107.721 61.4888 106.569 60.2212C106.425 60.2212 105.993 59.6018 105.273 58.363C105.157 58.363 104.812 58.0605 104.236 57.4556C104.236 55.9287 104.48 54.6755 104.97 53.696C104.769 53.696 104.668 53.552 104.668 53.2639C104.956 52.4285 105.157 51.9819 105.273 51.9243L105.1 51.6218V51.3625C105.33 51.1321 105.575 50.4983 105.834 49.4612C106.18 49.4612 106.857 48.7266 107.865 47.2573C108.326 47.2573 108.715 46.8684 109.032 46.0906L109.637 45.5288L109.464 45.2263C110.357 43.7859 111.236 42.6768 112.1 41.8989C112.302 41.8989 112.734 41.4092 113.397 40.4297L117.07 37.0591H116.897C116.724 37.1743 116.58 37.2319 116.465 37.2319V37.0591C116.465 36.8862 116.811 36.699 117.502 36.4973C117.531 36.699 117.632 36.7998 117.804 36.7998C118.093 36.5981 118.323 36.4973 118.496 36.4973V36.0652H118.366C118.165 36.1516 118.021 36.1948 117.934 36.1948V36.0652C119.173 35.1145 120.383 34.4807 121.564 34.1638H121.737ZM119.835 35.3306V35.4602H120.268C120.412 35.4602 120.556 35.3162 120.7 35.0281H120.57C120.253 35.2297 120.008 35.3306 119.835 35.3306ZM135.565 63.2893H135.695C136.098 63.1453 136.3 63.0012 136.3 62.8572H135.997C135.853 62.8572 135.709 63.0012 135.565 63.2893ZM125.194 73.79C125.251 73.9917 125.352 74.0925 125.496 74.0925H125.669C125.554 73.9197 125.496 73.718 125.496 73.4875C125.295 73.5164 125.194 73.6172 125.194 73.79ZM121.261 76.426L121.002 76.8582L121.261 76.9878C121.261 76.6997 121.362 76.5557 121.564 76.5557V76.426H121.261ZM119.101 80.1855L119.23 80.488L118.971 80.6177H118.798V80.488C118.827 80.2864 118.928 80.1855 119.101 80.1855ZM115.298 83.124V83.5562H114.996V83.3833C115.053 83.2104 115.154 83.124 115.298 83.124ZM114.736 83.8586L114.996 83.9883H115.471C114.722 85.2847 114.189 86.0049 113.872 86.1489H113.699V86.0193C113.814 85.8464 113.872 85.7024 113.872 85.5872L113.137 86.3218L112.965 86.0193C113.656 84.9246 114.247 84.2043 114.736 83.8586ZM115.903 85.8896L116.162 86.0193L116.335 85.7168V85.5872H116.162C115.99 85.616 115.903 85.7168 115.903 85.8896ZM114.002 93.7544C114.175 93.8408 114.319 93.884 114.434 93.884V94.1865C114.175 94.1865 113.886 94.3306 113.57 94.6187V94.1865C113.57 94.0425 113.714 93.8984 114.002 93.7544ZM179.469 31.1389H181.371C185.951 31.1389 189.552 33.1987 192.174 37.3184C192.98 39.1333 193.571 40.8906 193.946 42.5903L193.773 43.3682V44.0164C193.773 44.2468 193.83 44.4629 193.946 44.6646C193.513 47.2573 192.721 49.7493 191.569 52.1404C191.569 53.1487 190.82 54.6899 189.322 56.7642C188.4 56.937 187.291 57.7292 185.994 59.1409C185.015 59.573 183.733 60.3076 182.148 61.3447H182.321C183.646 60.9414 184.439 60.7397 184.698 60.7397V61.0422L177.222 63.5918C175.234 63.5918 173.175 62.8428 171.043 61.3447C170.207 60.5381 169.199 59.1121 168.018 57.0667C168.018 56.9226 167.427 55.439 166.246 52.6157C166.131 51.3481 165.972 50.7144 165.771 50.7144C165.771 46.8828 167.787 43.7427 171.821 41.2939C173.29 40.6313 174.673 40.156 175.969 39.8679C175.969 39.7527 176.012 39.6951 176.099 39.6951C177.453 39.9832 178.36 40.5161 178.821 41.2939C178.821 41.4956 179.08 42.0286 179.599 42.8928V43.3682C179.599 43.9731 179.023 44.7222 177.87 45.6152C178.072 45.644 178.173 45.7449 178.173 45.9177C177.366 46.321 176.675 47.0701 176.099 48.1648V48.4673H176.271L177.093 47.9919H177.698L174.37 50.3687C173.189 51.6074 172.44 52.8318 172.123 54.0417C172.123 54.2722 172.555 54.5891 173.419 54.9924H174.197C176.127 54.9924 178.835 54.1426 182.321 52.4429C184.799 50.5991 186.556 48.5825 187.593 46.3931C188.313 45.0679 188.832 43.2673 189.149 40.9915V39.8679C188.4 38.6868 186.758 37.7937 184.223 37.1887C183.272 37.1887 182.48 37.0735 181.846 36.843L179.124 37.1887V36.843C179.268 36.843 179.858 36.7422 180.895 36.5405H183.618L184.396 36.6702L184.568 36.3677L184.223 36.1948C183.33 36.3101 182.595 36.3677 182.019 36.3677L179.599 35.5898H179.296C179.066 35.5898 178.85 35.6331 178.648 35.7195C178.475 35.6331 178.274 35.5898 178.043 35.5898L177.222 35.7195C176.646 34.9993 176.228 34.6392 175.969 34.6392C175.537 34.4663 175.321 34.3079 175.321 34.1638C175.321 34.0486 175.537 33.7173 175.969 33.1699C175.969 32.7378 175.695 32.3201 175.148 31.9167C176.416 31.3982 177.856 31.1389 179.469 31.1389ZM215.898 0.760254C215.984 0.904297 216.027 1.06274 216.027 1.2356L216.243 1.10596V1.2356C216.099 1.55249 216.027 1.84058 216.027 2.09985H216.114L216.719 1.71094L216.848 1.97021C215.725 4.85107 215.163 6.42114 215.163 6.68042H215.033L215.163 6.89648L213.953 9.70532H214.299C214.385 9.12915 214.558 8.84106 214.817 8.84106C214.817 8.9563 214.933 9.08594 215.163 9.22998C215.25 9.05713 215.293 8.92749 215.293 8.84106H215.422C215.566 8.86987 215.638 8.9563 215.638 9.10034C215.293 9.73413 215.048 10.051 214.904 10.051V10.1807C215.077 10.3823 215.163 10.5408 215.163 10.656H215.293C215.408 10.656 215.566 10.4111 215.768 9.92139V9.31641C215.883 9.31641 216.042 9.11475 216.243 8.71143L216.114 8.49536L217.108 6.07544C217.108 5.9314 216.949 5.77295 216.632 5.6001C216.488 5.6001 216.315 5.75854 216.114 6.07544C216.229 6.07544 216.431 6.2771 216.719 6.68042C216.171 7.42944 215.811 7.948 215.638 8.23608H215.422V8.02002H215.163C215.163 8.48096 215.077 8.71143 214.904 8.71143C214.76 8.71143 214.688 8.6394 214.688 8.49536C214.976 8.03442 215.221 7.42944 215.422 6.68042C216.143 4.83667 216.503 3.87158 216.503 3.78516L216.848 3.52588H216.978C216.892 3.87158 216.848 4.15967 216.848 4.39014C217.108 4.39014 217.237 4.54858 217.237 4.86548L216.978 4.99512L217.108 5.68652H217.324C217.353 5.2832 217.641 4.80786 218.188 4.2605C218.188 4.34692 218.231 4.39014 218.318 4.39014C218.202 4.70703 218.001 4.9375 217.713 5.08154C217.713 5.16797 217.756 5.21118 217.842 5.21118C217.583 6.47876 217.295 7.57349 216.978 8.49536L217.237 8.625C217.525 7.47266 217.842 6.78125 218.188 6.55078C218.188 6.63721 218.231 6.68042 218.318 6.68042C218.231 7.57349 218.102 8.13525 217.929 8.36572H218.318C218.318 8.45215 218.274 8.49536 218.188 8.49536L218.318 9.10034C217.108 12.5862 215.854 16.4177 214.558 20.595C215.192 20.595 215.509 20.6238 215.509 20.6814L215.768 20.595C217.41 20.595 218.937 20.5085 220.349 20.3357C220.521 20.4221 220.651 20.4653 220.738 20.4653C220.853 20.3213 221.818 20.1917 223.633 20.0764C223.777 20.1628 223.892 20.2061 223.979 20.2061C224.123 20.1196 224.295 20.0764 224.497 20.0764C224.497 20.2493 224.569 20.3357 224.713 20.3357C224.742 20.1628 224.828 20.0764 224.972 20.0764H226.053L226.658 19.99C226.658 20.0476 226.701 20.0764 226.787 20.0764C226.787 19.9612 227.508 19.8027 228.948 19.6011V19.7307L231.973 19.2554C232.117 19.3418 232.275 19.385 232.448 19.385C232.477 19.2122 232.563 19.1257 232.708 19.1257H232.837C233.01 19.1257 233.168 19.1689 233.312 19.2554C233.457 19.1689 233.615 19.1257 233.788 19.1257L234.047 19.2554C234.047 19.1401 234.162 19.0105 234.393 18.8665C234.537 18.9529 234.652 18.9961 234.739 18.9961C234.767 18.8521 234.854 18.78 234.998 18.78H235.344L235.257 18.9961H235.603C235.603 18.7656 236.453 18.5208 238.152 18.2615C238.296 18.3479 238.455 18.3911 238.628 18.3911C238.887 18.3911 239.247 18.2327 239.708 17.9158C239.708 18.0886 239.823 18.175 240.054 18.175C240.284 18.175 240.572 18.0454 240.918 17.7861C241.091 17.7861 241.249 17.8293 241.393 17.9158C241.566 17.8293 241.696 17.7861 241.782 17.7861L241.998 17.9158C242.69 17.5413 243.496 17.2676 244.418 17.0947C244.418 17.0083 244.505 16.9651 244.677 16.9651C244.706 17.1091 244.778 17.1812 244.894 17.1812C245.153 17.1812 245.686 17.0227 246.492 16.7058C246.636 16.7922 246.795 16.8354 246.968 16.8354H247.227V16.7058C247.141 16.5618 247.097 16.4465 247.097 16.3601H247.227C247.4 16.3601 247.558 16.4033 247.702 16.4897L251.937 15.3662H252.067L251.937 15.1501V15.0205C252.081 15.0493 252.153 15.1357 252.153 15.2798L252.413 15.1501L252.672 15.2798C254.429 14.7036 256.23 14.2139 258.073 13.8105H258.462V13.4648H258.938C259.744 13.3208 260.148 13.1479 260.148 12.9463L260.493 13.2056C260.926 12.9751 261.574 12.7302 262.438 12.4709V12.3413L263.043 12.4709C264.397 11.9812 265.448 11.7075 266.198 11.6499C266.198 11.5635 266.284 11.5203 266.457 11.5203L266.673 11.6499L267.883 11.1313H268.142L268.488 11.3906H268.617L268.488 11.1313C268.92 10.9873 269.323 10.7856 269.698 10.5264H270.043C270.043 10.4111 270.173 10.2959 270.432 10.1807C270.432 10.2959 270.548 10.4111 270.778 10.5264C270.778 10.3823 270.908 10.3103 271.167 10.3103L271.772 10.4399C271.772 10.2671 271.844 10.1807 271.988 10.1807C272.161 10.2671 272.291 10.3103 272.377 10.3103L272.982 9.83496H273.068L272.982 10.051V10.1807H273.068C274.422 9.74854 275.315 9.38843 275.748 9.10034L276.353 9.22998C276.381 9.05713 276.468 8.9707 276.612 8.9707L276.828 9.10034H276.958V8.9707H276.698V8.71143L277.562 8.84106H277.692L277.562 8.625V8.49536L278.643 8.10645V8.23608L278.513 8.49536H279.118C279.377 8.26489 280.386 7.97681 282.143 7.6311C282.172 7.51587 283.223 7.19897 285.298 6.68042C285.326 6.50757 285.413 6.42114 285.557 6.42114L285.773 6.55078C286.176 6.37793 287.718 5.97461 290.397 5.34082C290.397 5.25439 290.426 5.21118 290.483 5.21118H291.477L292.082 5.34082V4.86548C292.197 4.86548 292.673 4.73584 293.508 4.47656H293.983V4.6062L293.897 4.86548H293.983C294.992 4.54858 295.64 4.39014 295.928 4.39014V4.47656C295.842 4.70703 294.358 5.15356 291.477 5.81616L282.748 8.23608V8.49536H282.878C283.627 8.23608 284.073 8.10645 284.217 8.10645V8.23608L284.693 8.02002C284.837 8.07764 284.952 8.10645 285.038 8.10645C285.442 7.90479 285.643 7.74634 285.643 7.6311L286.248 7.76074C286.652 7.44385 286.94 7.2854 287.113 7.2854L287.718 7.41504C287.746 7.24219 287.833 7.15576 287.977 7.15576L288.193 7.2854C288.193 7.02612 288.726 6.82446 289.792 6.68042H290.008V7.02612H290.397L290.267 6.42114H291.002L291.693 5.9458H291.823L292.082 6.07544C292.111 5.90259 292.183 5.81616 292.298 5.81616H292.428C292.428 6.01782 292.514 6.21948 292.687 6.42114L292.298 6.89648C292.385 6.89648 292.428 6.9397 292.428 7.02612H292.298C292.154 7.02612 292.082 6.91089 292.082 6.68042C291.909 6.70923 291.823 6.78125 291.823 6.89648C291.996 6.98291 292.125 7.02612 292.212 7.02612C292.212 7.31421 291.635 7.47266 290.483 7.50146C290.57 7.35742 290.613 7.24219 290.613 7.15576H290.483C290.368 7.24219 290.137 7.2854 289.792 7.2854C289.792 7.42944 289.907 7.50146 290.137 7.50146V7.76074L289.532 7.89038L289.403 7.6311C289.403 7.54468 289.446 7.50146 289.532 7.50146L289.403 7.2854V7.15576H289.792V7.02612C289.705 7.02612 289.576 6.98291 289.403 6.89648C289.172 7.06934 288.899 7.15576 288.582 7.15576V7.41504C288.755 7.41504 288.985 7.53027 289.273 7.76074H289.403L289.187 8.10645C289.244 8.2793 289.273 8.40894 289.273 8.49536C288.351 8.72583 287.746 8.92749 287.458 9.10034C287.314 9.10034 287.242 9.01392 287.242 8.84106C288.452 8.46655 289.057 8.22168 289.057 8.10645H288.582V7.89038H288.798V7.6311H288.668C288.15 8.20728 287.588 8.49536 286.983 8.49536C286.896 8.32251 286.853 8.19287 286.853 8.10645H286.767L286.378 8.36572L286.162 8.23608L286.032 8.49536H286.378V8.71143C284.938 9.14355 284.217 9.43164 284.217 9.57568H284.347L285.168 9.44604V9.57568C285.168 9.71973 284.52 9.9646 283.223 10.3103C283.223 10.3967 283.151 10.4399 283.007 10.4399C282.748 10.4399 282.618 10.2671 282.618 9.92139H282.402C282.057 10.4976 281.725 10.7856 281.408 10.7856V10.656C281.092 10.8289 280.818 10.9153 280.587 10.9153V10.656C281.192 10.512 281.552 10.4399 281.668 10.4399L281.538 10.1807C277.102 11.3906 274.854 12.082 274.797 12.2549C276.669 11.8516 278.441 11.3618 280.112 10.7856C280.112 10.8721 280.472 11.1169 281.192 11.5203C280.904 11.6643 280.415 11.8228 279.723 11.9956V11.866L279.507 11.9956H279.032C279.147 11.7075 279.666 11.5491 280.587 11.5203C280.587 11.3474 280.501 11.261 280.328 11.261H279.723C278.974 11.5203 278.499 11.6499 278.297 11.6499H278.038C278.038 11.9092 277.39 12.1396 276.093 12.3413C276.093 12.5142 275.863 12.6006 275.402 12.6006L275.488 12.8599C275.863 12.687 276.396 12.6006 277.087 12.6006H277.303C277.303 12.2837 277.548 12.1252 278.038 12.1252H278.643V12.3413H278.427C278.167 12.3413 277.678 12.5142 276.958 12.8599C276.324 12.8599 275.315 13.1768 273.933 13.8105C273.126 13.8105 272.723 13.9258 272.723 14.1562C272.579 14.0986 272.463 14.0698 272.377 14.0698L271.858 14.2859C271.858 14.1418 271.786 14.0698 271.642 14.0698C271.642 14.3579 271.196 14.5596 270.303 14.6748L270.043 14.5452H269.957V14.6748H270.173C270.173 14.8188 270.101 14.8909 269.957 14.8909L269.352 14.7612C269.323 14.8765 268.92 15.1213 268.142 15.4958C268.142 15.4094 268.099 15.3662 268.012 15.3662C267.926 15.5391 267.883 15.6687 267.883 15.7551H267.753C267.753 15.5823 267.71 15.4958 267.624 15.4958L267.407 15.6255L267.148 15.4958C267.062 15.4958 266.86 15.6975 266.543 16.1008C266.543 15.9568 266.471 15.8848 266.327 15.8848H265.938C265.621 16.1152 264.901 16.3457 263.778 16.5762C263.691 16.2593 263.533 16.1008 263.302 16.1008C263.129 16.1873 263 16.2305 262.913 16.2305V16.3601C263.259 16.3601 263.432 16.4321 263.432 16.5762C262.942 16.7778 262.697 16.9507 262.697 17.0947H262.827L262.697 17.3108V17.4404C265.578 16.7202 267.868 16.0288 269.568 15.3662C269.655 15.3662 269.698 15.4094 269.698 15.4958C270.332 15.179 270.778 15.0205 271.037 15.0205L271.253 15.1501C271.253 14.9773 272.636 14.5308 275.402 13.8105C284.851 11.0737 290.325 9.54687 291.823 9.22998V9.44604L277.822 13.4648C276.669 13.7817 276.021 14.0122 275.877 14.1562C275.503 14.1562 273.529 14.6892 269.957 15.7551C269.698 15.8992 268.156 16.3457 265.333 17.0947C265.218 17.0947 264.815 17.282 264.123 17.6565C263.979 17.5989 263.864 17.5701 263.778 17.5701C263.691 17.7141 263.648 17.8293 263.648 17.9158L263.043 17.7861H262.913V17.9158H263.173V18.175C261.156 18.5496 260.032 18.9097 259.802 19.2554C259.629 19.1689 259.5 19.1257 259.413 19.1257C259.096 19.4138 257.728 19.8604 255.308 20.4653C255.308 20.5518 255.265 20.595 255.178 20.595C255.034 20.5085 254.919 20.4653 254.833 20.4653L254.703 20.6814L254.098 20.595C253.839 20.595 253.565 20.7534 253.277 21.0703C253.104 20.9839 252.974 20.9407 252.888 20.9407L252.758 21.2L252.542 21.0703H252.283C252.283 21.3008 252.211 21.416 252.067 21.416H251.808L251.203 21.2864C251.203 21.4592 251.001 21.6321 250.598 21.8049L249.863 21.6753C248.797 22.3955 244.13 23.519 235.862 25.0459C233.845 25.4492 231.224 25.8525 227.997 26.2559V26.1262C223.302 26.8752 218.375 27.2498 213.219 27.2498H213.002C212.714 27.5378 211.908 30.3899 210.583 35.8059C206.693 48.0496 203.582 56.5913 201.249 61.4312C201.047 62.1514 200.528 62.8428 199.693 63.5054H199.434C198.627 63.5054 198.224 63.4189 198.224 63.2461L198.008 63.3757H197.878L195.717 62.5547C195.631 62.5547 195.501 62.5835 195.328 62.6411C194.752 62.6411 194.19 62.2378 193.643 61.4312C195.573 57.3691 196.985 54.0706 197.878 51.5354L200.039 45.8313C200.039 45.6296 200.485 44.3909 201.378 42.115C202.502 38.7444 203.668 34.668 204.878 29.8857C205.022 29.8857 205.354 28.9639 205.872 27.1201C201.983 26.4575 199.405 25.6509 198.137 24.7002C197.734 24.7002 196.639 23.8936 194.853 22.2803V21.8914H195.112V21.6753C194.709 21.0703 194.464 20.3069 194.378 19.385C194.291 19.385 194.248 19.3418 194.248 19.2554L194.378 18.9961C194.291 18.8521 194.248 18.6936 194.248 18.5208H194.378L194.248 18.2615V18.175C194.334 16.9651 194.579 16.3601 194.983 16.3601L200.644 18.9961L204.273 19.99L204.533 19.8604C204.994 20.0044 206.002 20.2061 207.558 20.4653C207.961 19.4282 208.364 18.1318 208.768 16.5762C209.315 14.3579 209.992 12.2261 210.799 10.1807C210.914 9.54687 211.115 9.22998 211.404 9.22998C211.404 9.14355 211.375 9.10034 211.317 9.10034C211.317 8.32251 211.634 7.6311 212.268 7.02612L212.138 6.81006C212.686 6.40674 213.046 6.20508 213.219 6.20508C213.219 5.9458 213.19 5.81616 213.132 5.81616C213.132 5.64331 213.247 5.16797 213.478 4.39014H214.083C214.601 2.74805 215.206 1.53809 215.898 0.760254ZM216.978 2.79126H217.237V3.18018H216.719V3.05054C216.748 2.87769 216.834 2.79126 216.978 2.79126ZM297.527 3.39624V3.65552C296.951 3.79956 296.619 3.87158 296.533 3.87158L296.403 3.65552C296.778 3.48267 297.152 3.39624 297.527 3.39624ZM298.132 3.78516H298.478V4.00122H297.873C297.901 3.85718 297.988 3.78516 298.132 3.78516ZM297.743 4.00122C297.743 4.20288 297.268 4.36133 296.317 4.47656L296.187 4.2605C296.994 4.08765 297.512 4.00122 297.743 4.00122ZM299.428 4.13086H299.688C299.688 4.33252 299.327 4.44775 298.607 4.47656V4.2605L299.428 4.13086ZM292.428 5.08154V5.21118H292.557C293.191 5.12476 293.508 5.00952 293.508 4.86548H293.378C293.321 4.86548 293.004 4.9375 292.428 5.08154ZM297.138 4.73584V4.99512L296.922 4.86548C296.922 5.00952 296.835 5.08154 296.663 5.08154H296.533C296.389 5.08154 296.317 5.00952 296.317 4.86548L297.138 4.73584ZM296.317 4.99512L296.058 5.34082C296.144 5.48486 296.187 5.6001 296.187 5.68652H296.058L295.712 5.47046H295.323L295.453 5.68652V5.81616H295.193C295.078 5.81616 294.963 5.70093 294.848 5.47046C295.021 5.29761 295.51 5.13916 296.317 4.99512ZM294.502 5.34082L294.718 5.9458L294.372 6.20508H294.243C294.07 6.20508 293.983 6.11865 293.983 5.9458H294.502V5.81616H293.983C293.983 5.98901 293.911 6.07544 293.767 6.07544C293.594 6.07544 293.508 5.98901 293.508 5.81616C293.508 5.67212 293.839 5.51367 294.502 5.34082ZM292.687 5.81616H293.292C293.292 6.13306 293.364 6.2915 293.508 6.2915H294.502V6.42114C294.502 6.59399 294.127 6.72363 293.378 6.81006V6.68042L293.508 6.42114C293.076 6.42114 292.802 6.2627 292.687 5.9458V5.81616ZM292.082 6.20508L291.952 6.42114V6.55078C292.096 6.46436 292.255 6.42114 292.428 6.42114V6.2915C292.341 6.2915 292.226 6.2627 292.082 6.20508ZM216.027 6.2915L215.898 6.89648C216.013 6.89648 216.171 6.73804 216.373 6.42114L216.114 6.2915H216.027ZM290.742 6.68042V6.89648C290.915 6.89648 291.002 6.98291 291.002 7.15576H291.347C291.52 7.15576 291.607 7.06934 291.607 6.89648C291.434 6.89648 291.347 6.82446 291.347 6.68042H291.693V6.42114C291.463 6.59399 291.146 6.68042 290.742 6.68042ZM293.292 7.02612H293.508V7.2854H293.033C293.062 7.11255 293.148 7.02612 293.292 7.02612ZM215.638 7.2854C215.638 7.40063 215.566 7.55908 215.422 7.76074V7.89038C215.538 7.89038 215.696 7.73193 215.898 7.41504L215.638 7.2854ZM285.298 8.23608C285.384 8.23608 285.499 8.2793 285.643 8.36572H285.773V8.23608C285.629 8.23608 285.557 8.16406 285.557 8.02002C285.384 8.04883 285.298 8.12085 285.298 8.23608ZM279.118 8.02002H279.248V8.10645C279.248 8.2793 279.176 8.36572 279.032 8.36572L278.902 8.10645L279.118 8.02002ZM282.013 8.49536C282.1 8.6394 282.143 8.79785 282.143 8.9707H282.273C282.273 8.82666 282.388 8.625 282.618 8.36572H282.402C282.229 8.45215 282.1 8.49536 282.013 8.49536ZM284.822 8.36572L284.952 8.625C285.096 8.53857 285.211 8.49536 285.298 8.49536V8.36572H284.822ZM285.557 8.71143H285.643C285.816 8.71143 285.903 8.6394 285.903 8.49536H285.773C285.629 8.52417 285.557 8.59619 285.557 8.71143ZM290.872 8.36572H291.218V8.625H290.872V8.36572ZM216.503 9.92139C216.733 9.92139 216.935 9.51807 217.108 8.71143H216.978C216.748 8.71143 216.589 9.11475 216.503 9.92139ZM280.198 9.22998L281.668 8.84106V8.71143H281.538C280.645 8.82666 280.198 8.99951 280.198 9.22998ZM284.217 9.10034H284.433C284.606 9.01392 284.736 8.9707 284.822 8.9707V8.84106H284.433C284.289 8.86987 284.217 8.9563 284.217 9.10034ZM290.008 8.71143L290.137 8.9707L289.792 9.22998H288.927C288.927 9.08594 289.288 8.91309 290.008 8.71143ZM286.508 8.9707H286.983C286.983 9.14355 286.911 9.22998 286.767 9.22998H286.508V8.9707ZM279.118 9.31641V9.57568H279.248L279.507 9.44604C279.651 9.53247 279.81 9.57568 279.982 9.57568H280.112C280.112 9.46045 279.954 9.34521 279.637 9.22998C279.637 9.2876 279.594 9.31641 279.507 9.31641V9.22998C279.334 9.2876 279.205 9.31641 279.118 9.31641ZM287.847 9.22998H287.977C288.121 9.22998 288.193 9.302 288.193 9.44604V9.57568H287.847V9.22998ZM271.642 11.5203V11.6499H271.988C272.276 11.4771 272.809 11.3042 273.587 11.1313C273.587 11.2466 273.702 11.3762 273.933 11.5203H274.062C273.889 11.3186 273.803 11.189 273.803 11.1313C274.062 10.9873 274.307 10.9153 274.538 10.9153L275.143 11.0449L275.013 10.7856L278.772 9.70532V9.44604L271.642 11.5203ZM286.637 9.57568H287.113C287.113 9.74854 287.026 9.83496 286.853 9.83496H286.637V9.57568ZM280.112 9.83496V10.051C280.371 10.051 280.573 10.0942 280.717 10.1807V9.92139L280.112 9.83496ZM210.928 10.4399V11.0449H211.058L211.188 10.4399H210.928ZM278.643 10.4399C278.672 10.584 278.758 10.656 278.902 10.656H279.032C279.032 10.512 278.945 10.4399 278.772 10.4399H278.643ZM270.908 10.5264V10.656H271.383V10.5264H270.908ZM283.353 10.5264H283.742C283.742 10.6992 283.656 10.7856 283.483 10.7856H283.353V10.5264ZM215.033 11.0449V11.261C215.206 11.1746 215.336 11.1313 215.422 11.1313V10.7856H215.293C215.12 10.8145 215.033 10.9009 215.033 11.0449ZM213.607 10.9153V11.261C213.751 11.261 213.823 11.189 213.823 11.0449V10.9153H213.607ZM282.748 10.7856V11.0449L282.143 11.1313C282.143 10.9585 282.345 10.8433 282.748 10.7856ZM281.322 11.1313H281.927V11.3906C281.639 11.4771 281.466 11.5203 281.408 11.5203L281.322 11.261V11.1313ZM269.568 12.1252V12.2549H269.827C269.971 12.2549 270.216 12.1685 270.562 11.9956C270.706 12.082 270.821 12.1252 270.908 12.1252L271.037 11.866H270.778C270.576 11.866 270.173 11.9524 269.568 12.1252ZM265.722 11.9956V12.1252H266.198V11.9956H265.722ZM268.142 12.7302H268.488L268.833 12.4709C269.006 12.5574 269.136 12.6006 269.222 12.6006L269.352 12.3413C269.179 12.3413 269.093 12.3125 269.093 12.2549C268.459 12.4277 268.142 12.5862 268.142 12.7302ZM273.068 12.8599H273.198C273.371 12.8599 273.457 12.7734 273.457 12.6006H273.328C273.155 12.6294 273.068 12.7158 273.068 12.8599ZM274.667 12.8599C274.667 12.7734 274.624 12.7302 274.538 12.7302C274.538 12.8743 273.688 13.1479 271.988 13.5513V13.8105H272.377C272.579 13.6665 273.544 13.3496 275.272 12.8599V12.6006H275.013L274.667 12.8599ZM268.963 13.9402H269.352V13.6809H269.222C269.05 13.7097 268.963 13.7961 268.963 13.9402ZM270.303 13.9402V14.1562L271.513 14.0698V13.9402C271.426 13.9402 271.311 13.897 271.167 13.8105C270.85 13.897 270.562 13.9402 270.303 13.9402ZM213.823 14.0698V14.4155H214.212V14.0698H213.823ZM267.148 14.8909V15.0205H267.407C267.696 15.0205 268.574 14.7756 270.043 14.2859V14.1562H269.698C269.237 14.4155 268.387 14.6604 267.148 14.8909ZM266.932 14.5452H267.148C267.321 14.4587 267.451 14.4155 267.537 14.4155V14.2859H267.148C267.004 14.3147 266.932 14.4011 266.932 14.5452ZM264.123 15.2798V15.4958L264.988 15.3662L264.858 15.1501L264.123 15.2798ZM263.518 15.3662V15.4958H264.037L263.907 15.2798C263.734 15.3374 263.605 15.3662 263.518 15.3662ZM266.068 15.4958H266.327C266.471 15.4958 266.543 15.4238 266.543 15.2798H266.327C266.154 15.2798 266.068 15.3518 266.068 15.4958ZM264.642 15.6255V15.8848C264.901 15.8848 265.103 15.9136 265.247 15.9712C265.247 15.7407 265.477 15.6255 265.938 15.6255V15.3662H265.852C265.276 15.5391 264.872 15.6255 264.642 15.6255ZM261.833 15.8848V15.9712H262.308C262.481 15.9712 262.568 15.8992 262.568 15.7551C262.481 15.7551 262.438 15.7119 262.438 15.6255C262.179 15.7983 261.977 15.8848 261.833 15.8848ZM263.778 15.9712V16.1008C263.95 16.1008 264.109 16.0576 264.253 15.9712L264.512 16.1008H264.642V15.9712C264.383 15.9712 264.253 15.856 264.253 15.6255C263.936 15.7407 263.778 15.856 263.778 15.9712ZM260.148 16.9651V17.0947H260.277L261.833 16.7058C262.006 16.7922 262.135 16.8354 262.222 16.8354V16.9651C262.222 17.1091 262.135 17.1812 261.963 17.1812C261.79 17.1812 261.631 17.1523 261.487 17.0947L260.753 17.4404L260.493 17.3108C260.493 17.426 260.292 17.5845 259.888 17.7861H259.672L259.413 17.6565C259.413 17.8293 259.211 17.9158 258.808 17.9158L258.938 18.175L258.678 18.2615C258.678 18.1174 258.606 18.0454 258.462 18.0454C258.29 18.1318 258.16 18.175 258.073 18.175C258.246 18.3767 258.333 18.5352 258.333 18.6504H258.592L258.462 18.3911V18.2615L259.067 18.3911C259.211 18.3911 259.283 18.3191 259.283 18.175L259.543 18.2615H259.802L259.672 18.0454L259.888 17.9158C259.917 18.0886 260.004 18.175 260.148 18.175H260.407L260.277 17.9158L260.493 17.7861V18.0454C261.531 17.8437 262.222 17.5557 262.568 17.1812L262.438 16.9651L262.827 16.3601H262.222V16.7058H262.092V16.3601L260.148 16.9651ZM258.073 17.6565H258.592C258.736 17.6565 258.808 17.5845 258.808 17.4404H258.333C258.16 17.4692 258.073 17.5413 258.073 17.6565ZM254.962 18.3911V18.5208H255.438V18.2615H255.308C255.164 18.3479 255.049 18.3911 254.962 18.3911ZM257.728 18.3911V18.5208C257.757 18.6936 257.843 18.78 257.987 18.78H258.073V18.3911H257.728ZM256.777 18.5208C256.777 18.6936 256.734 18.8521 256.647 18.9961H256.993V18.78L257.252 18.8665H257.598V18.78C257.598 18.6072 257.526 18.5208 257.382 18.5208H256.777ZM256.172 18.78C256.172 18.9241 256.086 18.9961 255.913 18.9961C255.942 19.1689 256.028 19.2554 256.172 19.2554H256.388V19.1257L256.259 18.8665C256.345 18.8665 256.388 18.8376 256.388 18.78H256.172ZM252.067 19.8604L252.153 20.0764C252.009 20.1628 251.894 20.2061 251.808 20.2061C251.836 20.3789 251.923 20.4653 252.067 20.4653C252.931 20.1196 253.493 19.8315 253.752 19.6011C253.954 19.6011 254.184 19.6875 254.444 19.8604L254.573 19.6011C254.487 19.6011 254.444 19.5579 254.444 19.4714L255.049 19.6011L255.783 19.385C255.783 19.2122 255.711 19.1257 255.567 19.1257H255.438L255.049 19.385C255.049 19.2122 255.02 19.1257 254.962 19.1257C254.789 19.2122 254.66 19.2554 254.573 19.2554V19.1257C253.306 19.6155 252.47 19.8604 252.067 19.8604ZM250.468 20.4653C250.497 20.6094 250.583 20.6814 250.727 20.6814C251.303 20.6814 251.62 20.5662 251.678 20.3357L251.073 20.2061V20.4653H250.943V20.2061H250.727C250.554 20.2349 250.468 20.3213 250.468 20.4653ZM249.517 20.595V20.6814L250.252 20.811C250.252 20.6958 250.122 20.5806 249.863 20.4653C249.719 20.5518 249.604 20.595 249.517 20.595ZM220.046 30.6204H220.349C220.349 31.0237 220.406 31.2253 220.521 31.2253L220.349 31.96V33.4292C220.349 33.5444 220.305 33.6021 220.219 33.6021L220.349 33.9045L220.219 34.6392H220.651C220.766 33.6885 220.968 32.8386 221.256 32.0896H221.991C222.02 31.9167 222.12 31.8303 222.293 31.8303L222.898 32.2625L223.028 31.6575H223.33V32.6946C223.503 32.6946 223.705 32.2048 223.935 31.2253H224.367C224.367 31.6287 224.468 31.8303 224.67 31.8303V32.9971C224.67 33.0835 224.612 33.1267 224.497 33.1267C224.612 33.2996 224.67 33.6021 224.67 34.0342H224.8V33.2996H225.102V33.9045C224.9 34.4231 224.699 36.3389 224.497 39.6519C224.295 40.3145 223.806 43.6707 223.028 49.7205C222.941 49.7205 222.898 49.8789 222.898 50.1958L223.028 50.4551C222.826 51.0024 222.178 54.9636 221.083 62.3386C220.968 62.3386 220.579 62.7275 219.917 63.5054C216.949 63.3037 215.466 63.0012 215.466 62.5979L214.428 62.7708C212.758 62.5403 211.922 62.1946 211.922 61.7336V60.999C212.412 60.999 213.55 55.8567 215.336 45.572C215.48 44.1316 215.682 43.1521 215.941 42.6335L215.768 42.3311C215.97 41.1787 216.517 38.9604 217.41 35.6763C217.41 35.1865 217.453 34.9417 217.54 34.9417L217.41 34.6392C217.669 33.9478 217.871 33.6021 218.015 33.6021C218.015 33.6885 218.058 33.7317 218.145 33.7317C218.375 32.5505 218.663 31.6575 219.009 31.0525L219.312 31.2253H219.484C219.484 31.0237 219.528 30.9229 219.614 30.9229H220.046V30.6204ZM259.5 22.0642H259.629V22.4531L259.5 22.7556C259.672 22.7844 259.759 22.8853 259.759 23.0581L258.981 24.4409V24.6138H259.111C259.111 24.3257 259.37 23.9944 259.888 23.6199V23.7495C259.86 23.9224 259.427 24.6282 258.592 25.8669V26.0398C259.37 25.55 259.759 25.1611 259.759 24.873H259.888V25.0459C259.888 25.5356 259.543 26.0542 258.851 26.6016L258.592 26.4287L258.419 26.7312V26.8608H258.851L258.722 27.1633C258.837 27.1633 258.967 27.3074 259.111 27.5955V27.7251L258.419 28.8486V29.0215H258.722V29.1511C258.722 29.2952 258.578 29.4392 258.29 29.5833C258.29 29.3816 258.203 29.2808 258.03 29.2808L257.771 30.145H257.901L258.419 29.7129H258.592C258.592 29.8569 258.405 30.0442 258.03 30.2747L258.16 30.5771C258.16 30.7212 257.814 31.0525 257.123 31.571C257.555 31.5999 257.771 31.7439 257.771 32.0032C257.137 33.1843 256.561 33.8901 256.042 34.1206C255.697 34.5815 255.438 34.812 255.265 34.812V35.1145H255.524V34.812C255.697 34.812 255.783 34.9561 255.783 35.2441H255.913L257.512 33.1267H257.641C256.921 34.5959 255.51 36.7278 253.406 39.5222H253.277V39.3926L253.839 38.3987H253.709L252.11 39.7815C252.052 40.0696 251.836 40.4585 251.462 40.9482L251.721 41.0779H251.851L253.018 39.7815L253.147 40.084C251.649 42.4751 250.771 44.1748 250.511 45.1831C250.425 45.1831 249.863 46.0906 248.826 47.9055C247.213 49.49 245.758 51.377 244.461 53.5664C243.77 54.7764 243.064 56.2456 242.344 57.9741C240.846 61.0566 240.01 62.7131 239.838 62.9436L238.93 63.8079C238.815 63.8079 238.757 63.7646 238.757 63.6782L238.498 63.8079C238.037 63.4622 237.072 63.1309 235.603 62.814C235.603 62.6987 235.257 62.5115 234.566 62.2522L234.306 62.3818C232.808 62.0073 232.059 61.2007 232.059 59.9619C231.512 57.4556 230.806 53.1487 229.942 47.0413C229.423 45.1111 228.718 41.7981 227.824 37.1023H227.695C227.695 35.9788 228.185 35.417 229.164 35.417C230.662 35.417 232.376 36.2092 234.306 37.7937C234.623 37.7937 234.969 38.0818 235.344 38.658C235.344 38.7444 235.3 38.7876 235.214 38.7876C235.473 39.5366 236.309 43.2385 237.72 49.8933H237.591C237.763 50.4695 237.85 50.844 237.85 51.0168H237.979L246.838 37.6641C246.838 37.6064 248.235 35.5322 251.03 31.4414C251.03 31.2686 252.182 29.6553 254.487 26.6016C254.487 26.2271 255.365 25.0459 257.123 23.0581C257.382 23.0581 257.814 22.9573 258.419 22.7556L258.722 22.8853C258.722 22.7988 258.981 22.5251 259.5 22.0642ZM257.771 26.8608V27.1633H258.03C258.03 26.9329 258.117 26.688 258.29 26.4287V26.2991C258.174 26.2991 258.001 26.4863 257.771 26.8608ZM256.864 32.6946L256.734 32.9971V33.1267H256.864C256.864 33.0115 256.907 32.8674 256.993 32.6946H256.864ZM272.074 30.9661C275.503 30.9661 278.499 32.3345 281.063 35.0713C281.581 36.3101 281.985 37.7937 282.273 39.5222C282.273 39.6086 282.229 39.6519 282.143 39.6519L282.273 40.5161V41.5532C282.273 43.0801 281.02 44.9814 278.513 47.2573C273.731 50.167 270.533 51.6218 268.92 51.6218C268.718 51.5354 268.574 51.4922 268.488 51.4922C268.488 51.665 268.387 51.7515 268.185 51.7515C268.07 51.7515 268.012 51.7083 268.012 51.6218L267.278 51.7515H266.802C266.658 51.7515 266.514 51.6218 266.37 51.3625L266.5 51.1033C266.097 50.6135 265.751 50.3687 265.463 50.3687C263.475 48.5825 262.481 47.1709 262.481 46.1338L262.784 46.0042H265.031C267.681 45.4856 270.922 43.9155 274.754 41.2939C276.453 39.5942 277.303 38.5139 277.303 38.053L275.229 37.6641H273.414C270.735 37.8945 267.235 39.5222 262.913 42.5471C260.695 44.5061 259.298 46.8252 258.722 49.5044C259.672 51.9243 263.619 54.3298 270.562 56.7209C272.665 57.3835 275.373 58.0894 278.686 58.8384L278.816 59.0977C278.614 59.1265 278.513 59.1985 278.513 59.3137L278.816 59.4434C279.017 59.4434 279.118 59.3281 279.118 59.0977H279.853V59.3137H279.421V59.573H279.723C280.818 59.573 281.365 59.7891 281.365 60.2212C281.365 60.4517 281.567 60.5669 281.97 60.5669V60.9558C281.97 61.1287 281.869 61.2151 281.668 61.2151H280.933C280.155 61.2151 278.902 61.0422 277.174 60.6965V60.9558H277.606V61.2151H277.174C276.914 61.0422 276.713 60.9558 276.569 60.9558V60.6965H276.871V60.5669H276.439L275.964 60.8262H275.834C275.085 60.8262 274.682 60.6965 274.624 60.4373H275.359C275.359 60.2932 275.258 60.2212 275.056 60.2212H274.624C274.624 60.3652 274.422 60.4373 274.019 60.4373V60.5669C274.307 60.5669 274.854 60.783 275.661 61.2151L276.136 60.9558H276.266V61.0854L276.136 61.3447H276.266C276.468 61.2583 276.626 61.2151 276.741 61.2151L279.853 62.209C280.256 62.209 280.458 62.281 280.458 62.425H280.155L278.384 62.3386H278.211V62.425C278.297 62.425 278.6 62.4683 279.118 62.5547V62.6843C279.118 62.7996 278.873 62.9724 278.384 63.2029C278.124 63.03 277.923 62.9436 277.779 62.9436L277.476 63.0732C276.698 62.7275 276.194 62.5547 275.964 62.5547H275.834L277.174 63.3325C276.77 63.3325 276.569 63.5342 276.569 63.9375H275.661C274.854 63.9375 274.206 63.7646 273.717 63.4189C270.317 62.5835 266.716 61.2583 262.913 59.4434C260.349 57.6572 258.592 56.0872 257.641 54.7332C256.46 53.5808 255.51 50.8008 254.789 46.3931L254.66 44.8806C254.861 42.9504 255.207 41.5388 255.697 40.6458C256.359 39.407 257.469 38.2114 259.024 37.0591C259.024 36.627 259.917 35.9644 261.703 35.0713C263.144 34.2358 264.195 33.4868 264.858 32.8242C267.422 31.5854 269.827 30.9661 272.074 30.9661ZM281.063 42.7632C281.063 42.9072 280.717 43.4546 280.026 44.4053H280.155C280.645 44.4053 281.048 43.8579 281.365 42.7632H281.063ZM279.853 44.5349C279.622 45.2551 278.081 46.4939 275.229 48.2512C272.233 49.7493 270.634 50.4983 270.432 50.4983V50.6279H270.865C275.301 49.2739 278.456 47.2861 280.328 44.6646L280.026 44.5349H279.853ZM273.414 60.4373H273.889V60.2212H273.717C273.515 60.2212 273.414 60.2932 273.414 60.4373ZM278.989 61.3447H279.421V61.5608H278.989V61.3447ZM273.587 62.0793V62.3386C273.673 62.3386 273.817 62.3674 274.019 62.425L274.149 62.209C273.947 62.209 273.76 62.1658 273.587 62.0793ZM274.927 63.2029C275.157 63.2029 275.359 63.2461 275.531 63.3325L275.661 63.0732L275.359 62.9436H275.229C275.027 62.9724 274.927 63.0588 274.927 63.2029Z" fill="white"/>
</svg>
