<svg width="219" height="70" viewBox="0 0 219 70" fill="none" xmlns="http://www.w3.org/2000/svg">
<path d="M24.9355 15.8213V16.0103C24.8306 16.0103 24.6731 16.0942 24.4631 16.2622C24.3372 16.2622 24.1902 16.3567 24.0222 16.5457H23.9277V16.3567C23.7388 16.5457 23.5918 16.6401 23.4868 16.6401L23.5813 16.8291C22.2585 17.7739 21.5132 18.2463 21.3452 18.2463L21.4397 18.4353C21.4187 18.5613 21.2717 18.6768 20.9988 18.7817V18.6873L21.0618 18.5298H20.9043L20.7153 18.5928C20.7993 18.8447 20.8938 18.9707 20.9988 18.9707H21.0618C21.6077 18.6138 21.9436 18.4353 22.0696 18.4353V18.5298C21.6707 19.1177 21.2192 19.4116 20.7153 19.4116C20.7363 19.5376 20.7993 19.6006 20.9043 19.6006C21.0093 19.6006 21.3032 19.4746 21.7861 19.2227L21.8806 19.4116L20.4634 20.4824L20.5264 20.6714C20.5264 20.7344 20.2954 20.9758 19.8335 21.3958H19.8965L20.2744 21.3013C20.3794 21.3643 20.4949 21.3958 20.6208 21.3958C20.6838 21.2908 20.7153 21.1648 20.7153 21.0178H20.9988V21.1123L20.8098 21.3958V21.4587H21.1562V21.6477C20.7363 21.7317 18.8572 23.0439 15.5188 25.5845C12.9573 27.8311 10.8157 29.9832 9.09399 32.0408C6.70044 34.9802 5.50366 37.8147 5.50366 40.5442L5.59814 40.8906C5.59814 40.9536 5.56665 40.9851 5.50366 40.9851C5.77661 42.7698 6.07056 43.6621 6.3855 43.6621C7.26733 43.6621 8.91553 42.4128 11.3301 39.9143C12.5688 38.0247 13.1882 36.7964 13.1882 36.2295V32.9226L13.7236 32.2927C13.6606 31.8938 13.6292 31.5684 13.6292 31.3164L13.8181 31.2219C13.8811 31.2219 13.9126 31.2534 13.9126 31.3164L14.1016 31.2219L14.448 31.3164L14.8889 31.0645H15.0779C15.7917 31.5054 16.1487 31.7678 16.1487 31.8518C16.8835 32.3347 17.3035 32.6602 17.4084 32.8281L17.8494 32.7651C18.0803 32.7651 18.2588 33.2061 18.3848 34.0879L18.2903 34.4658C18.2903 34.8228 18.2588 35.7991 18.1958 37.3948C18.4478 39.2424 18.8362 40.9431 19.3611 42.4968C19.2561 42.5598 19.1721 42.5913 19.1091 42.5913C19.1931 42.8433 19.3401 42.9692 19.55 42.9692V43.2212C19.4241 43.2212 19.3611 43.2527 19.3611 43.3157C19.5081 43.7356 19.6865 44.1555 19.8965 44.5754L19.739 44.6699C19.5081 44.187 19.3611 43.9456 19.2981 43.9456H19.2036C19.2036 44.0715 19.4976 44.7014 20.0854 45.8352V45.8982C20.0854 46.3181 19.613 46.5281 18.6682 46.5281C18.6682 46.6541 18.4583 46.717 18.0383 46.717C17.2615 46.5491 16.6631 46.1606 16.2432 45.5518C15.9072 45.1738 15.4558 44.313 14.8889 42.9692C12.2854 45.4678 10.4062 46.717 9.25146 46.717H8.18066C7.57178 46.717 6.85791 46.4441 6.03906 45.8982C3.75049 45.0583 2.31226 44.019 1.72437 42.7803C1.32544 41.6885 1.12598 40.7017 1.12598 39.8198C1.16797 39.8198 1.18896 39.7883 1.18896 39.7253C1.10498 39.7253 0.989502 39.5154 0.842529 39.0955C0.968506 36.7439 1.26245 35.4316 1.72437 35.1587H2.00781C2.17578 34.8228 2.25977 34.5918 2.25977 34.4658L2.10229 34.5288C2.01831 34.5288 1.92383 34.4448 1.81885 34.2769C2.00781 34.2769 2.28076 33.7939 2.6377 32.8281C2.72168 32.8281 2.90015 32.5972 3.1731 32.1353L3.36206 32.1982C3.46704 32.1982 4.2124 31.2219 5.59814 29.2693V29.1748C5.15723 29.6997 4.85278 29.9622 4.68481 29.9622L4.59033 29.8047C6.9209 26.8442 9.52441 24.3037 12.4009 22.1831C13.2617 21.4902 14.1855 20.8394 15.1724 20.2305C15.2354 20.3354 15.2668 20.4194 15.2668 20.4824L15.0779 20.8289L15.8967 20.2935H16.0542V20.4824H16.1487V20.2935C16.0857 20.2935 16.0542 20.2725 16.0542 20.2305L17.7549 19.0652C18.3008 18.6453 18.9937 18.2883 19.8335 17.9944V17.8999H19.739C19.3401 18.0679 19.0986 18.1519 19.0146 18.1519V17.8054C19.3716 17.8054 19.8545 17.5325 20.4634 16.9866H20.6208V17.27L20.5264 17.4275H20.6208C20.8938 17.2595 21.1038 17.1755 21.2507 17.1755L21.4397 17.27C22.4265 16.7871 23.0249 16.5457 23.2349 16.5457C23.9907 16.0627 24.5576 15.8213 24.9355 15.8213ZM21.6917 16.6401V16.7346C21.6917 16.8186 21.4607 16.9656 20.9988 17.1755H20.7153V16.8921C20.8623 16.8921 21.1877 16.8081 21.6917 16.6401ZM20.9988 17.522H21.0618C21.1877 17.522 21.2507 17.4695 21.2507 17.3645H21.1562C21.0513 17.3645 20.9988 17.417 20.9988 17.522ZM20.2744 17.4275L20.1799 17.6165V17.7109H20.2744C20.2744 17.585 20.3374 17.522 20.4634 17.522V17.4275H20.2744ZM18.1328 18.3408H18.3848V18.5298H18.1328V18.3408ZM17.6604 18.5928C17.7864 18.6138 17.8494 18.6768 17.8494 18.7817C17.2825 19.1597 16.8311 19.5166 16.4951 19.8525C16.4111 19.8525 16.0857 20.031 15.5188 20.3879H15.4243V20.2305C15.8862 19.8735 16.1907 19.6951 16.3376 19.6951C16.3376 19.4851 16.7786 19.1177 17.6604 18.5928ZM20.1799 19.3171H20.0854L19.8335 19.1282V19.5061C19.7075 19.5691 19.613 19.6006 19.55 19.6006V19.6951H19.739C20.3689 19.3171 20.7258 19.1282 20.8098 19.1282V18.9707C20.7258 18.9707 20.5159 19.0862 20.1799 19.3171ZM17.2195 21.2068H17.314C17.4399 21.2068 17.5029 21.1438 17.5029 21.0178V20.9233C17.4189 20.9233 17.3245 21.0178 17.2195 21.2068ZM16.3376 21.6477V21.7422C16.4006 21.7422 16.4846 21.7737 16.5896 21.8367V21.6477H16.3376ZM15.6133 21.9312V21.9941H15.8022V22.1831H15.6133V22.2776H15.7078C15.8127 22.2146 15.9282 22.1831 16.0542 22.1831C16.0542 22.0991 15.9387 22.0151 15.7078 21.9312H15.6133ZM12.7473 22.4666C12.7473 22.6345 12.6318 22.7185 12.4009 22.7185V22.813H12.5583L12.8418 22.4666H12.7473ZM15.1724 22.5295L15.0779 22.7185V22.813H15.1724C15.1724 22.687 15.2354 22.624 15.3613 22.624V22.5295H15.1724ZM15.6133 24.2302C15.6343 24.3562 15.6973 24.4192 15.8022 24.4192C15.8862 24.1882 15.9702 24.0728 16.0542 24.0728H16.1487C16.2957 24.1777 16.4111 24.2302 16.4951 24.2302C16.7681 24.1252 16.9255 24.0098 16.9675 23.8838C16.8416 23.8838 16.7786 23.8208 16.7786 23.6948V23.6318C16.9255 23.6318 17.1355 23.5059 17.4084 23.2539H17.5029V23.3484L17.4084 23.5374H17.7549C17.7549 23.4744 17.7864 23.3799 17.8494 23.2539H17.5974V23.0964C17.6394 22.9075 17.8704 22.7815 18.2903 22.7185C18.2903 22.5925 18.2378 22.5295 18.1328 22.5295C17.7129 22.5505 16.873 23.1174 15.6133 24.2302ZM14.1016 23.3484V23.4429C14.1226 23.5688 14.175 23.6318 14.259 23.6318L14.3535 23.4429V23.3484H14.1016ZM17.062 23.7893V23.8838H17.125C17.251 23.8838 17.314 23.8208 17.314 23.6948V23.6318H17.2195C17.1145 23.6318 17.062 23.6843 17.062 23.7893ZM12.5583 24.3247C12.5583 24.3877 12.5374 24.4822 12.4954 24.6082C12.5793 24.6082 12.6948 24.6711 12.8418 24.7971L13.0308 24.5137V24.4192L12.8418 24.5137L12.5583 24.3247ZM12.1174 25.1436H12.2119C12.4429 25.0596 12.5583 24.9651 12.5583 24.8601H12.4009C12.3169 24.8601 12.2224 24.9546 12.1174 25.1436ZM11.2356 25.679V25.8679H11.4875V25.679H11.2356ZM10.8577 26.0254V26.3088C10.9836 26.3088 11.0466 26.2458 11.0466 26.1199V26.0254H10.8577ZM10.5112 26.3088C10.5112 26.3718 10.4797 26.4558 10.4167 26.5608H10.5112L10.7002 26.3088H10.5112ZM3.7085 31.3164L3.80298 31.5054L3.61401 31.5999H3.51953V31.5054C3.54053 31.3794 3.60352 31.3164 3.7085 31.3164ZM2.44873 33.647V33.7415C2.53271 33.7415 2.6272 33.647 2.73218 33.458H2.6377C2.51172 33.479 2.44873 33.542 2.44873 33.647ZM46.4775 17.9944L46.572 18.1833L46.2886 18.8762V18.9707H46.3831V18.7817H46.572V18.9707L45.5012 20.9863V21.0808H45.5957C46.2046 19.926 46.656 19.2227 46.95 18.9707V19.1597C46.1311 20.5664 45.2913 22.1096 44.4304 23.7893V23.8838H44.5249C44.5669 23.6318 44.6719 23.5059 44.8398 23.5059H44.9343V23.6948L44.7139 23.9783V24.1672L45.1233 23.6948L45.3123 23.7893C45.3123 23.7053 45.4067 23.6108 45.5957 23.5059V23.6003C45.5957 23.7893 45.5012 24.0413 45.3123 24.3562C45.3752 24.4822 45.4067 24.6187 45.4067 24.7656H45.3123L45.1233 24.6711L45.0288 24.8601C45.2178 24.8601 45.3123 24.9231 45.3123 25.0491C44.9553 25.196 44.7559 25.385 44.7139 25.616C44.8608 25.637 44.9343 25.7 44.9343 25.8049V25.8994C44.9343 26.0464 44.5459 26.4663 43.769 27.1592V27.2537L43.958 27.1592C44.084 27.1802 44.147 27.2432 44.147 27.3481C44.042 27.3481 43.8215 27.7681 43.4856 28.6079C43.2126 28.9229 42.9817 29.5422 42.7927 30.4661L42.4148 31.1274H42.5093L42.6982 31.033C42.6982 31.0959 42.7297 31.1274 42.7927 31.1274L41.6274 33.5525C41.3545 33.9304 41.1655 34.1194 41.0605 34.1194L41.155 34.3083C41.155 34.6443 40.8926 35.0327 40.3677 35.4736L40.4622 35.6626L39.4229 37.7097H39.1394L39.2339 38.1821C38.436 38.707 38.0161 39.2529 37.9741 39.8198C37.9741 40.0298 37.2917 41.0271 35.927 42.8118C35.99 42.8118 36.1895 42.6858 36.5254 42.4338V42.5283C35.7275 43.4521 34.8247 44.3235 33.8169 45.1423C33.8169 45.4573 33.3655 45.7827 32.4626 46.1187C31.7908 46.5596 31.1504 46.78 30.5415 46.78C29.2397 46.78 27.4026 46.0347 25.03 44.5439C23.3503 42.7383 22.5105 40.5862 22.5105 38.0876C22.5105 35.4001 23.1509 32.3452 24.4316 28.9229C25.1665 27.6211 25.6809 26.9702 25.9749 26.9702C26.2478 26.9702 26.3843 26.8757 26.3843 26.6868L28.022 27.1592C28.5259 27.6211 28.7778 28.104 28.7778 28.6079C28.3369 29.3008 28.1165 29.7837 28.1165 30.0566H28.2109C28.085 32.1353 27.959 33.521 27.833 34.2139C27.98 34.2139 28.106 34.2454 28.2109 34.3083C27.938 35.6521 27.749 36.3975 27.644 36.5444L27.7385 36.7334V37.3003H27.5181V36.45H27.4236C27.4236 36.6809 27.3606 37.1323 27.2346 37.8042H27.4236V37.6152H27.644V37.7097C27.3711 37.8987 27.2346 38.0562 27.2346 38.1821V38.4656H27.3291V38.0876H27.5181V39.5364C27.5181 39.6833 27.5601 39.8093 27.644 39.9143L27.5181 40.1033C27.6021 40.2292 27.644 40.3342 27.644 40.4182C27.5601 40.4182 27.5181 40.4497 27.5181 40.5127C27.623 40.5127 27.8225 41.1846 28.1165 42.5283C28.3684 42.8853 28.4944 43.1792 28.4944 43.4102H28.8723C30.1321 42.6753 31.6543 41.1216 33.439 38.749L35.927 34.6233L41.4385 24.2617C43.5171 20.4824 44.7454 18.5508 45.1233 18.4668C45.1233 18.5298 45.1548 18.5613 45.2178 18.5613L45.1233 18.7817V18.8762L45.6902 18.3723C45.7952 18.4353 45.9211 18.4668 46.0681 18.4668C46.0681 18.2778 46.2046 18.1204 46.4775 17.9944ZM44.6194 19.3486V19.6321H44.7139C44.8188 19.6321 44.9238 19.5376 45.0288 19.3486V19.0652H44.9343C44.8293 19.0652 44.7244 19.1597 44.6194 19.3486ZM44.3359 19.9155V20.2305C44.4409 20.2305 44.5354 20.1255 44.6194 19.9155V19.821C44.4934 19.884 44.3989 19.9155 44.3359 19.9155ZM43.3911 26.3088C43.3911 26.4558 43.3491 26.5818 43.2651 26.6868H43.3911L43.4856 26.4978V26.3088H43.3911ZM28.3999 32.5762H28.5889V32.6707L28.3054 34.0249H28.1165C28.1165 33.8149 28.2109 33.332 28.3999 32.5762ZM27.644 35.2847L27.5181 35.4736V35.946H27.644C27.644 35.7781 27.707 35.5891 27.833 35.3792L27.644 35.2847ZM40.3677 36.3555H40.4622C40.2732 36.7334 40.1787 36.9539 40.1787 37.0168H39.9897V36.8279C40.1577 36.5129 40.2837 36.3555 40.3677 36.3555ZM39.7063 37.3003H39.8953V37.5208C39.8953 37.6467 39.8323 37.7097 39.7063 37.7097H39.6118C39.6748 37.5837 39.7063 37.4473 39.7063 37.3003ZM35.4546 43.3157H35.5491C35.675 43.3157 35.738 43.2422 35.738 43.0952V43.0007C35.6541 43.0007 35.5596 43.1057 35.4546 43.3157ZM35.1711 43.5046C35.1711 43.6306 35.1082 43.6936 34.9822 43.6936V43.7881H35.1711L35.3601 43.5046H35.1711ZM57.0281 0.893066C57.0911 0.998047 57.1226 1.11353 57.1226 1.2395L57.28 1.14502V1.2395C57.175 1.47046 57.1226 1.68042 57.1226 1.86938H57.1855L57.6265 1.58594L57.7209 1.7749C56.9021 3.87451 56.4927 5.0188 56.4927 5.20776H56.3982L56.4927 5.36523L55.6108 7.41235H55.8628C55.9258 6.99243 56.0518 6.78247 56.2407 6.78247C56.2407 6.86646 56.3247 6.96094 56.4927 7.06592C56.5557 6.93994 56.5872 6.84546 56.5872 6.78247H56.6816C56.7866 6.80347 56.8391 6.86646 56.8391 6.97144C56.5872 7.43335 56.4087 7.66431 56.3037 7.66431V7.75879C56.4297 7.90576 56.4927 8.02124 56.4927 8.10522H56.5872C56.6711 8.10522 56.7866 7.92676 56.9336 7.56982V7.12891C57.0176 7.12891 57.1331 6.98193 57.28 6.68799L57.1855 6.53052L57.9099 4.76685C57.9099 4.66187 57.7944 4.54639 57.5635 4.42041C57.4585 4.42041 57.3325 4.53589 57.1855 4.76685C57.2695 4.76685 57.4165 4.91382 57.6265 5.20776C57.2275 5.75366 56.9651 6.13159 56.8391 6.34155H56.6816V6.18408H56.4927C56.4927 6.52002 56.4297 6.68799 56.3037 6.68799C56.1987 6.68799 56.1462 6.6355 56.1462 6.53052C56.3562 6.19458 56.5347 5.75366 56.6816 5.20776C57.2065 3.86401 57.469 3.16064 57.469 3.09766L57.7209 2.90869H57.8154C57.7524 3.16064 57.7209 3.37061 57.7209 3.53857C57.9099 3.53857 58.0044 3.65405 58.0044 3.88501L57.8154 3.97949L57.9099 4.4834H58.0674C58.0884 4.18945 58.2983 3.84302 58.6973 3.44409C58.6973 3.50708 58.7288 3.53857 58.7917 3.53857C58.7078 3.76953 58.5608 3.9375 58.3508 4.04248C58.3508 4.10547 58.3823 4.13696 58.4453 4.13696C58.2563 5.06079 58.0464 5.85864 57.8154 6.53052L58.0044 6.625C58.2144 5.78516 58.4453 5.28125 58.6973 5.11328C58.6973 5.17627 58.7288 5.20776 58.7917 5.20776C58.7288 5.85864 58.6343 6.26807 58.5083 6.43604H58.7917C58.7917 6.49902 58.7603 6.53052 58.6973 6.53052L58.7917 6.97144C57.9099 9.51196 56.9966 12.3044 56.0518 15.3489C56.5137 15.3489 56.7446 15.3699 56.7446 15.4119L56.9336 15.3489C58.1304 15.3489 59.2432 15.2859 60.272 15.1599C60.3979 15.2229 60.4924 15.2544 60.5554 15.2544C60.6394 15.1494 61.3428 15.0549 62.6655 14.9709C62.7705 15.0339 62.8545 15.0654 62.9175 15.0654C63.0225 15.0024 63.1484 14.9709 63.2954 14.9709C63.2954 15.0969 63.3479 15.1599 63.4529 15.1599C63.4739 15.0339 63.5369 14.9709 63.6418 14.9709H64.4292L64.8701 14.908C64.8701 14.95 64.9016 14.9709 64.9646 14.9709C64.9646 14.887 65.4895 14.7715 66.5393 14.6245V14.719L68.7439 14.3726C68.8489 14.4355 68.9644 14.467 69.0903 14.467C69.1113 14.3411 69.1743 14.2781 69.2793 14.2781H69.3738C69.4998 14.2781 69.6152 14.3096 69.7202 14.3726C69.8252 14.3096 69.9407 14.2781 70.0667 14.2781L70.2556 14.3726C70.2556 14.2886 70.3396 14.1941 70.5076 14.0891C70.6125 14.1521 70.6965 14.1836 70.7595 14.1836C70.7805 14.0786 70.8435 14.0261 70.9485 14.0261H71.2004L71.1375 14.1836H71.3894C71.3894 14.0156 72.0088 13.8372 73.2476 13.6482C73.3525 13.7112 73.468 13.7427 73.594 13.7427C73.783 13.7427 74.0454 13.6272 74.3813 13.3962C74.3813 13.5222 74.4653 13.5852 74.6333 13.5852C74.8013 13.5852 75.0112 13.4907 75.2632 13.3018C75.3892 13.3018 75.5046 13.3333 75.6096 13.3962C75.7356 13.3333 75.8301 13.3018 75.8931 13.3018L76.0505 13.3962C76.5544 13.1233 77.1423 12.9238 77.8142 12.7979C77.8142 12.7349 77.8772 12.7034 78.0032 12.7034C78.0242 12.8083 78.0767 12.8608 78.1606 12.8608C78.3496 12.8608 78.738 12.7454 79.3259 12.5144C79.4309 12.5774 79.5464 12.6089 79.6724 12.6089H79.8613V12.5144C79.7983 12.4094 79.7668 12.3254 79.7668 12.2625H79.8613C79.9873 12.2625 80.1028 12.2939 80.2078 12.3569L83.2942 11.5381H83.3887L83.2942 11.3806V11.2861C83.3992 11.3071 83.4517 11.3701 83.4517 11.4751L83.6406 11.3806L83.8296 11.4751C85.1104 11.0552 86.4226 10.6982 87.7664 10.4043H88.0498V10.1523H88.3962C88.9841 10.0474 89.2781 9.92139 89.2781 9.77441L89.53 9.96338C89.845 9.79541 90.3174 9.61694 90.9473 9.42798V9.3335L91.3882 9.42798C92.375 9.07104 93.1414 8.87158 93.6873 8.82959C93.6873 8.7666 93.7502 8.73511 93.8762 8.73511L94.0337 8.82959L94.9155 8.45166H95.1045L95.3564 8.64062H95.4509L95.3564 8.45166C95.6714 8.34668 95.9653 8.19971 96.2383 8.01074H96.4902C96.4902 7.92676 96.5847 7.84277 96.7737 7.75879C96.7737 7.84277 96.8577 7.92676 97.0256 8.01074C97.0256 7.90576 97.1201 7.85327 97.3091 7.85327L97.75 7.94775C97.75 7.82178 97.8025 7.75879 97.9075 7.75879C98.0334 7.82178 98.1279 7.85327 98.1909 7.85327L98.6318 7.50684H98.6948L98.6318 7.66431V7.75879H98.6948C99.6816 7.44385 100.333 7.1814 100.647 6.97144L101.088 7.06592C101.109 6.93994 101.172 6.87695 101.277 6.87695L101.435 6.97144H101.529V6.87695H101.34V6.68799L101.97 6.78247H102.065L101.97 6.625V6.53052L102.758 6.24707V6.34155L102.663 6.53052H103.104C103.293 6.36255 104.028 6.15259 105.309 5.90063C105.33 5.81665 106.096 5.58569 107.608 5.20776C107.629 5.08179 107.692 5.0188 107.797 5.0188L107.954 5.11328C108.248 4.9873 109.371 4.69336 111.324 4.23145C111.324 4.16846 111.345 4.13696 111.387 4.13696H112.111L112.552 4.23145V3.88501C112.636 3.88501 112.983 3.79053 113.592 3.60156H113.938V3.69604L113.875 3.88501H113.938C114.673 3.65405 115.145 3.53857 115.355 3.53857V3.60156C115.292 3.76953 114.211 4.09497 112.111 4.57788L105.75 6.34155V6.53052H105.844C106.39 6.34155 106.715 6.24707 106.82 6.24707V6.34155L107.167 6.18408C107.272 6.22607 107.356 6.24707 107.419 6.24707C107.713 6.1001 107.86 5.98462 107.86 5.90063L108.301 5.99512C108.594 5.76416 108.804 5.64868 108.93 5.64868L109.371 5.74316C109.392 5.61719 109.455 5.5542 109.56 5.5542L109.718 5.64868C109.718 5.45972 110.106 5.31274 110.883 5.20776H111.041V5.45972H111.324L111.229 5.0188H111.765L112.269 4.67236H112.363L112.552 4.76685C112.573 4.64087 112.626 4.57788 112.71 4.57788H112.804C112.804 4.72485 112.867 4.87183 112.993 5.0188L112.71 5.36523C112.773 5.36523 112.804 5.39673 112.804 5.45972H112.71C112.605 5.45972 112.552 5.37573 112.552 5.20776C112.426 5.22876 112.363 5.28125 112.363 5.36523C112.489 5.42822 112.584 5.45972 112.647 5.45972C112.647 5.66968 112.227 5.78516 111.387 5.80615C111.45 5.70117 111.481 5.61719 111.481 5.5542H111.387C111.303 5.61719 111.135 5.64868 110.883 5.64868C110.883 5.75366 110.967 5.80615 111.135 5.80615V5.99512L110.694 6.0896L110.6 5.90063C110.6 5.83765 110.631 5.80615 110.694 5.80615L110.6 5.64868V5.5542H110.883V5.45972C110.82 5.45972 110.726 5.42822 110.6 5.36523C110.432 5.49121 110.232 5.5542 110.001 5.5542V5.74316C110.127 5.74316 110.295 5.82715 110.505 5.99512H110.6L110.442 6.24707C110.484 6.37305 110.505 6.46753 110.505 6.53052C109.833 6.69849 109.392 6.84546 109.182 6.97144C109.077 6.97144 109.025 6.90845 109.025 6.78247C109.907 6.50952 110.348 6.33105 110.348 6.24707H110.001V6.0896H110.159V5.90063H110.064C109.686 6.32056 109.277 6.53052 108.836 6.53052C108.773 6.40454 108.741 6.31006 108.741 6.24707H108.678L108.395 6.43604L108.238 6.34155L108.143 6.53052H108.395V6.68799C107.345 7.00293 106.82 7.21289 106.82 7.31787H106.915L107.513 7.22339V7.31787C107.513 7.42285 107.041 7.60132 106.096 7.85327C106.096 7.91626 106.043 7.94775 105.938 7.94775C105.75 7.94775 105.655 7.82178 105.655 7.56982H105.498C105.246 7.98975 105.004 8.19971 104.773 8.19971V8.10522C104.542 8.2312 104.343 8.29419 104.175 8.29419V8.10522C104.616 8.00024 104.878 7.94775 104.962 7.94775L104.868 7.75879C101.634 8.64062 99.9966 9.14453 99.9546 9.27051C101.319 8.97656 102.611 8.61963 103.828 8.19971C103.828 8.2627 104.091 8.44116 104.616 8.73511C104.406 8.84009 104.049 8.95557 103.545 9.08154V8.98706L103.387 9.08154H103.041C103.125 8.87158 103.503 8.7561 104.175 8.73511C104.175 8.60913 104.112 8.54614 103.986 8.54614H103.545C102.999 8.73511 102.653 8.82959 102.506 8.82959H102.317C102.317 9.01855 101.844 9.18652 100.899 9.3335C100.899 9.45947 100.731 9.52246 100.396 9.52246L100.458 9.71143C100.731 9.58545 101.12 9.52246 101.624 9.52246H101.781C101.781 9.2915 101.96 9.17603 102.317 9.17603H102.758V9.3335H102.6C102.411 9.3335 102.054 9.45947 101.529 9.71143C101.067 9.71143 100.333 9.94238 99.3247 10.4043C98.7368 10.4043 98.4429 10.4883 98.4429 10.6562C98.3379 10.6143 98.2539 10.5933 98.1909 10.5933L97.813 10.7507C97.813 10.6458 97.7605 10.5933 97.6555 10.5933C97.6555 10.8032 97.3301 10.9502 96.6792 11.0342L96.4902 10.9397H96.4272V11.0342H96.5847C96.5847 11.1392 96.5322 11.1917 96.4272 11.1917L95.9863 11.0972C95.9653 11.1812 95.6714 11.3596 95.1045 11.6326C95.1045 11.5696 95.073 11.5381 95.01 11.5381C94.947 11.6641 94.9155 11.7585 94.9155 11.8215H94.821C94.821 11.6956 94.7896 11.6326 94.7266 11.6326L94.5691 11.7271L94.3801 11.6326C94.3171 11.6326 94.1702 11.7795 93.9392 12.0735C93.9392 11.9685 93.8867 11.916 93.7817 11.916H93.4983C93.2673 12.084 92.7424 12.252 91.9236 12.4199C91.8606 12.189 91.7451 12.0735 91.5771 12.0735C91.4512 12.1365 91.3567 12.168 91.2937 12.168V12.2625C91.5457 12.2625 91.6716 12.3149 91.6716 12.4199C91.3147 12.5669 91.1362 12.6929 91.1362 12.7979H91.2307L91.1362 12.9553V13.0498C93.2358 12.5249 94.905 12.021 96.1438 11.5381C96.2068 11.5381 96.2383 11.5696 96.2383 11.6326C96.7002 11.4016 97.0256 11.2861 97.2146 11.2861L97.3721 11.3806C97.3721 11.2546 98.3799 10.9292 100.396 10.4043C107.282 8.40967 111.271 7.29687 112.363 7.06592V7.22339L102.159 10.1523C101.319 10.3833 100.847 10.5513 100.742 10.6562C100.469 10.6562 99.0308 11.0447 96.4272 11.8215C96.2383 11.9265 95.115 12.252 93.0574 12.7979C92.9734 12.7979 92.6794 12.9343 92.1755 13.2073C92.0706 13.1653 91.9866 13.1443 91.9236 13.1443C91.8606 13.2493 91.8291 13.3333 91.8291 13.3962L91.3882 13.3018H91.2937V13.3962H91.4827V13.5852C90.0129 13.8582 89.1941 14.1206 89.0261 14.3726C88.9001 14.3096 88.8057 14.2781 88.7427 14.2781C88.5117 14.488 87.5144 14.8135 85.7507 15.2544C85.7507 15.3174 85.7192 15.3489 85.6562 15.3489C85.5513 15.2859 85.4673 15.2544 85.4043 15.2544L85.3098 15.4119L84.8689 15.3489C84.6799 15.3489 84.4805 15.4644 84.2705 15.6953C84.1445 15.6323 84.05 15.6008 83.9871 15.6008L83.8926 15.7898L83.7351 15.6953H83.5461C83.5461 15.8633 83.4937 15.9473 83.3887 15.9473H83.1997L82.7588 15.8528C82.7588 15.9788 82.6118 16.1047 82.3179 16.2307L81.7825 16.1362C81.0056 16.6611 77.6042 17.48 71.5784 18.5928C70.1086 18.8867 68.198 19.1807 65.8464 19.4746V19.3801C62.4241 19.926 58.8337 20.199 55.0754 20.199H54.918C54.708 20.4089 54.1201 22.4875 53.1543 26.4348C50.3198 35.3582 48.0522 41.5835 46.3516 45.1108C46.2046 45.6357 45.8267 46.1396 45.2178 46.6226H45.0288C44.4409 46.6226 44.147 46.5596 44.147 46.4336L43.9895 46.5281H43.895L42.3203 45.9297C42.2573 45.9297 42.1628 45.9507 42.0369 45.9927C41.6169 45.9927 41.2075 45.6987 40.8086 45.1108C42.2153 42.1504 43.2441 39.7463 43.895 37.8987L45.4697 33.7415C45.4697 33.5945 45.7952 32.6917 46.446 31.033C47.2649 28.5764 48.1152 25.6055 48.9971 22.1201C49.1021 22.1201 49.3435 21.4482 49.7214 20.1045C46.887 19.6216 45.0078 19.0337 44.084 18.3408C43.79 18.3408 42.9922 17.7529 41.6904 16.5771V16.2937H41.8794V16.1362C41.5854 15.6953 41.407 15.1389 41.344 14.467C41.281 14.467 41.2495 14.4355 41.2495 14.3726L41.344 14.1836C41.281 14.0786 41.2495 13.9631 41.2495 13.8372H41.344L41.2495 13.6482V13.5852C41.3125 12.7034 41.491 12.2625 41.7849 12.2625L45.9106 14.1836L48.5562 14.908L48.7451 14.8135C49.0811 14.9185 49.8159 15.0654 50.9497 15.2544C51.2437 14.4985 51.5376 13.5537 51.8315 12.4199C52.2305 10.8032 52.7239 9.24951 53.3118 7.75879C53.3958 7.29687 53.5427 7.06592 53.7527 7.06592C53.7527 7.00293 53.7317 6.97144 53.6897 6.97144C53.6897 6.40454 53.9207 5.90063 54.3826 5.45972L54.2881 5.30225C54.687 5.0083 54.9495 4.86133 55.0754 4.86133C55.0754 4.67236 55.0544 4.57788 55.0125 4.57788C55.0125 4.4519 55.0964 4.10547 55.2644 3.53857H55.7053C56.0833 2.3418 56.5242 1.45996 57.0281 0.893066ZM57.8154 2.37329H58.0044V2.65674H57.6265V2.56226C57.6475 2.43628 57.7104 2.37329 57.8154 2.37329ZM116.521 2.81421V3.00317C116.101 3.10815 115.859 3.16064 115.796 3.16064L115.702 3.00317C115.975 2.8772 116.248 2.81421 116.521 2.81421ZM116.961 3.09766H117.213V3.25513H116.772C116.793 3.15015 116.856 3.09766 116.961 3.09766ZM116.678 3.25513C116.678 3.4021 116.332 3.51758 115.639 3.60156L115.544 3.44409C116.132 3.31812 116.51 3.25513 116.678 3.25513ZM117.906 3.34961H118.095C118.095 3.49658 117.833 3.58057 117.308 3.60156V3.44409L117.906 3.34961ZM112.804 4.04248V4.13696H112.899C113.361 4.07397 113.592 3.98999 113.592 3.88501H113.497C113.455 3.88501 113.224 3.9375 112.804 4.04248ZM116.237 3.79053V3.97949L116.08 3.88501C116.08 3.98999 116.017 4.04248 115.891 4.04248H115.796C115.691 4.04248 115.639 3.98999 115.639 3.88501L116.237 3.79053ZM115.639 3.97949L115.45 4.23145C115.513 4.33643 115.544 4.42041 115.544 4.4834H115.45L115.198 4.32593H114.914L115.009 4.4834V4.57788H114.82C114.736 4.57788 114.652 4.4939 114.568 4.32593C114.694 4.19995 115.051 4.08447 115.639 3.97949ZM114.316 4.23145L114.473 4.67236L114.221 4.86133H114.127C114.001 4.86133 113.938 4.79834 113.938 4.67236H114.316V4.57788H113.938C113.938 4.70386 113.885 4.76685 113.781 4.76685C113.655 4.76685 113.592 4.70386 113.592 4.57788C113.592 4.4729 113.833 4.35742 114.316 4.23145ZM112.993 4.57788H113.434C113.434 4.80884 113.487 4.92432 113.592 4.92432H114.316V5.0188C114.316 5.14478 114.043 5.23926 113.497 5.30225V5.20776L113.592 5.0188C113.277 5.0188 113.077 4.90332 112.993 4.67236V4.57788ZM112.552 4.86133L112.458 5.0188V5.11328C112.563 5.05029 112.678 5.0188 112.804 5.0188V4.92432C112.741 4.92432 112.657 4.90332 112.552 4.86133ZM57.1226 4.92432L57.0281 5.36523C57.1121 5.36523 57.2275 5.24976 57.3745 5.0188L57.1855 4.92432H57.1226ZM111.576 5.20776V5.36523C111.702 5.36523 111.765 5.42822 111.765 5.5542H112.017C112.143 5.5542 112.206 5.49121 112.206 5.36523C112.08 5.36523 112.017 5.31274 112.017 5.20776H112.269V5.0188C112.101 5.14478 111.87 5.20776 111.576 5.20776ZM113.434 5.45972H113.592V5.64868H113.245C113.266 5.52271 113.329 5.45972 113.434 5.45972ZM56.8391 5.64868C56.8391 5.73267 56.7866 5.84814 56.6816 5.99512V6.0896C56.7656 6.0896 56.8811 5.97412 57.0281 5.74316L56.8391 5.64868ZM107.608 6.34155C107.671 6.34155 107.755 6.37305 107.86 6.43604H107.954V6.34155C107.849 6.34155 107.797 6.28906 107.797 6.18408C107.671 6.20508 107.608 6.25757 107.608 6.34155ZM103.104 6.18408H103.198V6.24707C103.198 6.37305 103.146 6.43604 103.041 6.43604L102.947 6.24707L103.104 6.18408ZM105.214 6.53052C105.277 6.6355 105.309 6.75098 105.309 6.87695H105.403C105.403 6.77197 105.487 6.625 105.655 6.43604H105.498C105.372 6.49902 105.277 6.53052 105.214 6.53052ZM107.261 6.43604L107.356 6.625C107.461 6.56201 107.545 6.53052 107.608 6.53052V6.43604H107.261ZM107.797 6.68799H107.86C107.986 6.68799 108.049 6.6355 108.049 6.53052H107.954C107.849 6.55151 107.797 6.604 107.797 6.68799ZM111.67 6.43604H111.922V6.625H111.67V6.43604ZM57.469 7.56982C57.637 7.56982 57.7839 7.27588 57.9099 6.68799H57.8154C57.6475 6.68799 57.532 6.98193 57.469 7.56982ZM103.891 7.06592L104.962 6.78247V6.68799H104.868C104.217 6.77197 103.891 6.89795 103.891 7.06592ZM106.82 6.97144H106.978C107.104 6.90845 107.198 6.87695 107.261 6.87695V6.78247H106.978C106.873 6.80347 106.82 6.86646 106.82 6.97144ZM111.041 6.68799L111.135 6.87695L110.883 7.06592H110.253C110.253 6.96094 110.516 6.83496 111.041 6.68799ZM108.49 6.87695H108.836C108.836 7.00293 108.783 7.06592 108.678 7.06592H108.49V6.87695ZM103.104 7.12891V7.31787H103.198L103.387 7.22339C103.492 7.28638 103.608 7.31787 103.734 7.31787H103.828C103.828 7.23389 103.713 7.1499 103.482 7.06592C103.482 7.10791 103.45 7.12891 103.387 7.12891V7.06592C103.261 7.10791 103.167 7.12891 103.104 7.12891ZM109.466 7.06592H109.56C109.665 7.06592 109.718 7.11841 109.718 7.22339V7.31787H109.466V7.06592ZM97.6555 8.73511V8.82959H97.9075C98.1174 8.70361 98.5059 8.57764 99.0728 8.45166C99.0728 8.53564 99.1567 8.63013 99.3247 8.73511H99.4192C99.2932 8.58813 99.2302 8.49365 99.2302 8.45166C99.4192 8.34668 99.5977 8.29419 99.7656 8.29419L100.207 8.38867L100.112 8.19971L102.852 7.41235V7.22339L97.6555 8.73511ZM108.584 7.31787H108.93C108.93 7.44385 108.867 7.50684 108.741 7.50684H108.584V7.31787ZM103.828 7.50684V7.66431C104.017 7.66431 104.164 7.6958 104.269 7.75879V7.56982L103.828 7.50684ZM53.4062 7.94775V8.38867H53.5007L53.5952 7.94775H53.4062ZM102.758 7.94775C102.779 8.05273 102.842 8.10522 102.947 8.10522H103.041C103.041 8.00024 102.978 7.94775 102.852 7.94775H102.758ZM97.1201 8.01074V8.10522H97.4666V8.01074H97.1201ZM106.19 8.01074H106.474C106.474 8.13672 106.411 8.19971 106.285 8.19971H106.19V8.01074ZM56.3982 8.38867V8.54614C56.5242 8.48315 56.6187 8.45166 56.6816 8.45166V8.19971H56.5872C56.4612 8.2207 56.3982 8.28369 56.3982 8.38867ZM55.3589 8.29419V8.54614C55.4639 8.54614 55.5164 8.49365 55.5164 8.38867V8.29419H55.3589ZM105.75 8.19971V8.38867L105.309 8.45166C105.309 8.32568 105.456 8.2417 105.75 8.19971ZM104.71 8.45166H105.151V8.64062C104.941 8.70361 104.815 8.73511 104.773 8.73511L104.71 8.54614V8.45166ZM96.1438 9.17603V9.27051H96.3328C96.4377 9.27051 96.6162 9.20752 96.8682 9.08154C96.9731 9.14453 97.0571 9.17603 97.1201 9.17603L97.2146 8.98706H97.0256C96.8787 8.98706 96.5847 9.05005 96.1438 9.17603ZM93.3408 9.08154V9.17603H93.6873V9.08154H93.3408ZM95.1045 9.61694H95.3564L95.6084 9.42798C95.7344 9.49097 95.8289 9.52246 95.8918 9.52246L95.9863 9.3335C95.8604 9.3335 95.7974 9.3125 95.7974 9.27051C95.3354 9.39648 95.1045 9.51196 95.1045 9.61694ZM98.6948 9.71143H98.7893C98.9153 9.71143 98.9783 9.64844 98.9783 9.52246H98.8838C98.7578 9.54346 98.6948 9.60645 98.6948 9.71143ZM99.8601 9.71143C99.8601 9.64844 99.8286 9.61694 99.7656 9.61694C99.7656 9.72192 99.1462 9.92139 97.9075 10.2153V10.4043H98.1909C98.3379 10.2993 99.0413 10.0684 100.301 9.71143V9.52246H100.112L99.8601 9.71143ZM95.7029 10.4988H95.9863V10.3098H95.8918C95.7659 10.3308 95.7029 10.3938 95.7029 10.4988ZM96.6792 10.4988V10.6562L97.561 10.5933V10.4988C97.498 10.4988 97.4141 10.4673 97.3091 10.4043C97.0781 10.4673 96.8682 10.4988 96.6792 10.4988ZM55.5164 10.5933V10.8452H55.7998V10.5933H55.5164ZM94.3801 11.1917V11.2861H94.5691C94.7791 11.2861 95.4194 11.1077 96.4902 10.7507V10.6562H96.2383C95.9023 10.8452 95.283 11.0237 94.3801 11.1917ZM94.2227 10.9397H94.3801C94.5061 10.8767 94.6006 10.8452 94.6636 10.8452V10.7507H94.3801C94.2751 10.7717 94.2227 10.8347 94.2227 10.9397ZM92.1755 11.4751V11.6326L92.8054 11.5381L92.7109 11.3806L92.1755 11.4751ZM91.7346 11.5381V11.6326H92.1125L92.0181 11.4751C91.8921 11.5171 91.7976 11.5381 91.7346 11.5381ZM93.5928 11.6326H93.7817C93.8867 11.6326 93.9392 11.5801 93.9392 11.4751H93.7817C93.6558 11.4751 93.5928 11.5276 93.5928 11.6326ZM92.5535 11.7271V11.916C92.7424 11.916 92.8894 11.937 92.9944 11.979C92.9944 11.811 93.1624 11.7271 93.4983 11.7271V11.5381H93.4353C93.0154 11.6641 92.7214 11.7271 92.5535 11.7271ZM90.5063 11.916V11.979H90.8528C90.9788 11.979 91.0417 11.9265 91.0417 11.8215C90.9788 11.8215 90.9473 11.79 90.9473 11.7271C90.7583 11.853 90.6113 11.916 90.5063 11.916ZM91.9236 11.979V12.0735C92.0496 12.0735 92.165 12.042 92.27 11.979L92.459 12.0735H92.5535V11.979C92.3645 11.979 92.27 11.895 92.27 11.7271C92.0391 11.811 91.9236 11.895 91.9236 11.979ZM89.2781 12.7034V12.7979H89.3726L90.5063 12.5144C90.6323 12.5774 90.7268 12.6089 90.7898 12.6089V12.7034C90.7898 12.8083 90.7268 12.8608 90.6008 12.8608C90.4749 12.8608 90.3594 12.8398 90.2544 12.7979L89.719 13.0498L89.53 12.9553C89.53 13.0393 89.3831 13.1548 89.0891 13.3018H88.9316L88.7427 13.2073C88.7427 13.3333 88.5957 13.3962 88.3018 13.3962L88.3962 13.5852L88.2073 13.6482C88.2073 13.5432 88.1548 13.4907 88.0498 13.4907C87.9238 13.5537 87.8293 13.5852 87.7664 13.5852C87.8923 13.7322 87.9553 13.8477 87.9553 13.9316H88.1443L88.0498 13.7427V13.6482L88.4907 13.7427C88.5957 13.7427 88.6482 13.6902 88.6482 13.5852L88.8372 13.6482H89.0261L88.9316 13.4907L89.0891 13.3962C89.1101 13.5222 89.1731 13.5852 89.2781 13.5852H89.467L89.3726 13.3962L89.53 13.3018V13.4907C90.2859 13.3437 90.7898 13.1338 91.0417 12.8608L90.9473 12.7034L91.2307 12.2625H90.7898V12.5144H90.6953V12.2625L89.2781 12.7034ZM87.7664 13.2073H88.1443C88.2493 13.2073 88.3018 13.1548 88.3018 13.0498H87.9553C87.8293 13.0708 87.7664 13.1233 87.7664 13.2073ZM85.4988 13.7427V13.8372H85.8452V13.6482H85.7507C85.6458 13.7112 85.5618 13.7427 85.4988 13.7427ZM87.5144 13.7427V13.8372C87.5354 13.9631 87.5984 14.0261 87.7034 14.0261H87.7664V13.7427H87.5144ZM86.8215 13.8372C86.8215 13.9631 86.79 14.0786 86.7271 14.1836H86.979V14.0261L87.168 14.0891H87.4199V14.0261C87.4199 13.9001 87.3674 13.8372 87.2625 13.8372H86.8215ZM86.3806 14.0261C86.3806 14.1311 86.3176 14.1836 86.1917 14.1836C86.2126 14.3096 86.2756 14.3726 86.3806 14.3726H86.5381V14.2781L86.4436 14.0891C86.5066 14.0891 86.5381 14.0681 86.5381 14.0261H86.3806ZM83.3887 14.8135L83.4517 14.9709C83.3467 15.0339 83.2627 15.0654 83.1997 15.0654C83.2207 15.1914 83.2837 15.2544 83.3887 15.2544C84.0186 15.0024 84.428 14.7925 84.6169 14.6245C84.7639 14.6245 84.9319 14.6875 85.1208 14.8135L85.2153 14.6245C85.1523 14.6245 85.1208 14.593 85.1208 14.53L85.5618 14.6245L86.0972 14.467C86.0972 14.3411 86.0447 14.2781 85.9397 14.2781H85.8452L85.5618 14.467C85.5618 14.3411 85.5408 14.2781 85.4988 14.2781C85.3728 14.3411 85.2783 14.3726 85.2153 14.3726V14.2781C84.2915 14.635 83.6826 14.8135 83.3887 14.8135ZM82.2234 15.2544C82.2444 15.3594 82.3074 15.4119 82.4124 15.4119C82.8323 15.4119 83.0632 15.3279 83.1052 15.1599L82.6643 15.0654V15.2544H82.5698V15.0654H82.4124C82.2864 15.0864 82.2234 15.1494 82.2234 15.2544ZM81.5305 15.3489V15.4119L82.0659 15.5063C82.0659 15.4224 81.9714 15.3384 81.7825 15.2544C81.6775 15.3174 81.5935 15.3489 81.5305 15.3489ZM64.2402 23.0334H65.626C68.9644 23.0334 71.5889 24.5347 73.4995 27.5371C74.0874 28.8599 74.5178 30.1406 74.7908 31.3794L74.6648 31.9463V32.4187C74.6648 32.5867 74.7068 32.7441 74.7908 32.8911C74.4758 34.7808 73.8984 36.5969 73.0586 38.3396C73.0586 39.0745 72.5127 40.1978 71.4209 41.7095C70.749 41.8354 69.9407 42.4128 68.9958 43.4417C68.282 43.7566 67.3477 44.292 66.1929 45.0479H66.3188C67.2847 44.7539 67.8621 44.6069 68.051 44.6069V44.8274L62.6025 46.6855C61.1538 46.6855 59.6526 46.1396 58.0989 45.0479C57.49 44.46 56.7551 43.4207 55.8943 41.9299C55.8943 41.825 55.4639 40.7437 54.603 38.686C54.519 37.7622 54.4036 37.3003 54.2566 37.3003C54.2566 34.5078 55.7263 32.2192 58.6658 30.4346C59.7366 29.9517 60.7444 29.6052 61.6892 29.3953C61.6892 29.3113 61.7207 29.2693 61.7837 29.2693C62.7705 29.4792 63.4319 29.8677 63.7678 30.4346C63.7678 30.5815 63.9568 30.97 64.3347 31.5999V31.9463C64.3347 32.3872 63.9148 32.9331 63.075 33.584C63.2219 33.605 63.2954 33.6785 63.2954 33.8044C62.7075 34.0984 62.2036 34.6443 61.7837 35.4421V35.6626H61.9097L62.5081 35.3162H62.949L60.5239 37.0483C59.6631 37.9512 59.1172 38.8435 58.8862 39.7253C58.8862 39.8933 59.2012 40.1243 59.8311 40.4182H60.3979C61.8047 40.4182 63.7783 39.7988 66.3188 38.5601C68.1245 37.2163 69.4053 35.7466 70.1611 34.1509C70.686 33.1851 71.064 31.8728 71.2949 30.2141V29.3953C70.749 28.5344 69.5522 27.8835 67.7046 27.4426C67.0117 27.4426 66.4343 27.3586 65.9724 27.1907L63.9883 27.4426V27.1907C64.0933 27.1907 64.5237 27.1172 65.2795 26.9702H67.2637L67.8306 27.0647L67.9565 26.8442L67.7046 26.7183C67.0537 26.8022 66.5183 26.8442 66.0984 26.8442L64.3347 26.2773H64.1143C63.9463 26.2773 63.7888 26.3088 63.6418 26.3718C63.5159 26.3088 63.3689 26.2773 63.2009 26.2773L62.6025 26.3718C62.1826 25.8469 61.8782 25.5845 61.6892 25.5845C61.3743 25.4585 61.2168 25.343 61.2168 25.238C61.2168 25.1541 61.3743 24.9126 61.6892 24.5137C61.6892 24.1987 61.4897 23.8943 61.0908 23.6003C62.0146 23.2224 63.0645 23.0334 64.2402 23.0334ZM88.9946 25.238V25.3325C88.9106 25.5425 88.6902 25.6475 88.3333 25.6475V25.8679H88.5537C88.7427 25.7209 89.3411 25.5425 90.3489 25.3325L90.8843 25.4585C90.9263 25.4585 91.0732 25.4165 91.3252 25.3325C91.9971 25.3325 93.1624 25.7629 94.821 26.6238C95.3879 27.1067 95.6714 27.3901 95.6714 27.4741C95.6084 27.6001 95.5769 27.7051 95.5769 27.7891C96.1228 28.146 96.8997 28.8494 97.9075 29.8992C98.8733 28.8914 100.396 27.936 102.474 27.0332L103.01 26.9387V27.0332C103.324 26.7603 104.101 26.4768 105.34 26.1829V26.3088L105.97 26.0884C106.096 26.1514 106.201 26.1829 106.285 26.1829C106.789 26.1199 107.072 26.0884 107.135 26.0884C107.219 26.0884 107.65 26.2249 108.427 26.4978C108.427 26.3928 108.563 26.2878 108.836 26.1829C110.096 26.7078 111.229 27.2432 112.237 27.7891C112.972 28.041 113.644 28.4294 114.253 28.9543C115.135 29.1643 116.122 30.2246 117.213 32.1353C117.99 33.0381 118.421 33.5315 118.505 33.6155C118.862 34.6443 119.04 35.2847 119.04 35.5366C118.956 35.5366 118.914 35.5681 118.914 35.6311C119.061 35.6311 119.135 35.7361 119.135 35.946C118.988 36.093 118.883 36.8384 118.82 38.1821C118.022 40.0928 115.513 42.4968 111.292 45.3943C107.513 47.9768 104.143 50.0344 101.183 51.5671C98.5164 53.3938 96.1858 55.126 94.1912 56.7637C89.1941 61.5718 86.4646 64.5427 86.0027 65.6765C84.9739 67.1042 84.407 67.8181 84.302 67.8181H83.9871V67.9126L84.2075 68.2275H84.0815L83.8926 68.1331H83.5776C83.5776 67.9651 83.4307 67.8601 83.1367 67.8181V67.5032H82.9163C82.9163 67.7131 82.8533 67.8181 82.7273 67.8181H82.6013V67.6921C82.6013 67.5662 82.7483 67.2197 83.0422 66.6528L82.8218 66.7473C82.6748 66.7473 82.6013 66.6738 82.6013 66.5269C83.3782 65.3301 83.8401 64.7317 83.9871 64.7317V64.6372C83.5671 64.6372 83.3572 64.5322 83.3572 64.3223L84.302 63.031L84.5225 63.1255C84.5225 62.6846 84.9109 62.0547 85.6877 61.2358H85.7822V61.3303L85.4673 61.7712V62.0862H85.5933C85.6982 62.0862 85.8767 61.8762 86.1287 61.4563V61.1099C85.8977 61.1099 85.7822 61.0469 85.7822 60.9209C87.126 59.1362 87.9763 58.2439 88.3333 58.2439V58.4644H88.5537L88.3333 58.1494C88.5642 57.7715 89.0996 57.1311 89.9395 56.2283V56.1338H89.845C89.698 56.1968 89.5825 56.2283 89.4985 56.2283C89.4985 56.1233 89.7505 55.8818 90.2544 55.5039L90.4749 55.5984H90.5693V55.5039H90.3489C90.3699 55.3569 90.4434 55.2834 90.5693 55.2834L90.7898 55.3779H90.8843V55.2834H90.6638V55.063C90.6638 54.937 90.7793 54.874 91.0103 54.874V54.6536C90.1494 55.2415 89.719 55.5879 89.719 55.6929C88.8372 56.4907 88.3752 56.8896 88.3333 56.8896H88.2388V56.7637L88.3333 56.5432H88.2388C88.1548 56.5432 87.8398 56.8687 87.2939 57.5195V57.614H87.4829V57.8345C87.2729 58.1914 86.7061 58.8318 85.7822 59.7556L85.2783 59.3147C85.3413 59.2307 85.3728 59.0522 85.3728 58.7793H85.2783V58.6848C85.2783 58.5378 85.4148 58.4644 85.6877 58.4644L85.5933 58.2439C85.5933 58.1389 86.0132 57.8555 86.853 57.3936C87.4199 56.9106 88.1653 56.1023 89.0891 54.9685H88.9946L88.7742 55.063L88.6482 54.874C88.8792 54.79 89.0996 54.5381 89.3096 54.1182H89.4985V54.0237L89.4041 53.8032C89.614 53.6562 89.866 53.5513 90.1599 53.4883L90.0339 53.2678L90.6638 52.8269C90.6008 52.8269 90.5693 52.7954 90.5693 52.7324C91.5142 52.1025 92.0496 51.7876 92.1755 51.7876C92.8894 51.2417 93.5193 50.6328 94.0652 49.9609C94.5901 49.583 95.4404 49.0581 96.6162 48.3862C96.6162 48.0923 97.0466 47.7039 97.9075 47.2209H97.5925V47.095C98.6423 46.3181 99.3142 45.9297 99.6082 45.9297V46.0557L99.7971 45.9297L100.238 46.0557L101.624 45.2998C102.359 44.6699 102.821 44.355 103.01 44.355V44.229H102.569V44.04C102.737 44.04 103.618 43.4731 105.214 42.3394L108.08 40.5127C108.164 40.5127 108.28 40.4812 108.427 40.4182C108.531 40.4812 108.668 40.5127 108.836 40.5127C109.235 40.1558 109.518 39.8408 109.686 39.5679C110.19 39.5679 110.442 39.2844 110.442 38.7175H110.631V39.0325H110.757C110.862 39.0325 110.967 38.9275 111.072 38.7175L110.852 38.4026C110.852 38.3396 111.271 37.9827 112.111 37.3318H112.237L112.458 37.4578C112.458 37.2688 112.594 37.1218 112.867 37.0168C112.867 36.5969 113.014 36.387 113.308 36.387C113.728 35.967 113.938 35.6521 113.938 35.4421C114.064 35.4421 114.242 35.0432 114.473 34.2454C114.641 34.2454 114.82 33.8989 115.009 33.2061C115.009 32.3452 113.371 31.7048 110.096 31.2849C109.802 31.2849 109.413 31.2534 108.93 31.1904C107.062 31.3164 105.256 31.9148 103.513 32.9856C101.561 34.2874 99.9021 35.988 98.5374 38.0876C98.0754 38.6545 97.54 39.5049 96.9312 40.6387L97.0571 40.8276L95.6714 44.229C95.4824 44.229 95.094 44.481 94.5061 44.9849H94.1912C92.9104 43.8931 92.27 43.1477 92.27 42.7488C92.27 42.3289 92.165 42.1189 91.9551 42.1189C91.9551 42.2659 91.8816 42.3394 91.7346 42.3394H91.5142C91.5142 42.0454 91.2307 41.405 90.6638 40.4182C90.8108 39.9143 91.0627 39.3789 91.4197 38.812C91.3567 38.707 91.3252 38.5706 91.3252 38.4026C91.5562 38.3186 91.8711 37.8882 92.27 37.1113L92.1755 36.9224C92.4695 36.8384 92.7844 36.45 93.1204 35.7571C93.0574 35.7571 93.0259 35.7151 93.0259 35.6311L93.4353 35.3162L93.3408 35.0957V35.0012L94.3801 31.7258L94.5061 31.1904C94.3801 30.1196 94.2332 29.5842 94.0652 29.5842C90.7478 29.5842 86.8215 32.7756 82.2864 39.1584C82.2864 39.2634 82.0449 39.7148 81.562 40.5127L80.2708 43.9141L80.5857 44.4495L80.4912 44.8904C80.5542 45.0164 80.5857 45.1528 80.5857 45.2998L80.0503 45.6147H79.7354C79.6724 45.6147 79.6409 45.5833 79.6409 45.5203C79.4939 45.5833 79.3889 45.6147 79.3259 45.6147C79.2419 45.6147 78.78 45.1528 77.9402 44.229C77.8352 44.229 77.5203 43.7776 76.9954 42.8748C76.9114 42.8748 76.6594 42.6543 76.2395 42.2134C76.2395 41.1006 76.418 40.1873 76.7749 39.4734C76.6279 39.4734 76.5544 39.3684 76.5544 39.1584C76.7644 38.5496 76.9114 38.2241 76.9954 38.1821L76.8694 37.9617V37.7727C77.0374 37.6047 77.2158 37.1428 77.4048 36.387C77.6567 36.387 78.1501 35.8516 78.885 34.7808C79.2209 34.7808 79.5044 34.4973 79.7354 33.9304L80.1763 33.521L80.0503 33.3005C80.7012 32.2507 81.3416 31.4424 81.9714 30.8755C82.1184 30.8755 82.4333 30.5186 82.9163 29.8047L85.5933 27.3481H85.4673C85.3413 27.4321 85.2363 27.4741 85.1523 27.4741V27.3481C85.1523 27.2222 85.4043 27.0857 85.9082 26.9387C85.9292 27.0857 86.0027 27.1592 86.1287 27.1592C86.3386 27.0122 86.5066 26.9387 86.6326 26.9387V26.6238H86.5381C86.3911 26.6868 86.2861 26.7183 86.2231 26.7183V26.6238C87.126 25.9309 88.0078 25.469 88.8687 25.238H88.9946ZM87.6089 26.0884V26.1829H87.9238C88.0288 26.1829 88.1338 26.0779 88.2388 25.8679H88.1443C87.9133 26.0149 87.7349 26.0884 87.6089 26.0884ZM99.0728 46.4651H99.1672C99.4612 46.3601 99.6082 46.2551 99.6082 46.1501H99.3877C99.2827 46.1501 99.1777 46.2551 99.0728 46.4651ZM91.5142 54.1182C91.5562 54.2651 91.6296 54.3386 91.7346 54.3386H91.8606C91.7766 54.2126 91.7346 54.0657 91.7346 53.8977C91.5876 53.9187 91.5142 53.9922 91.5142 54.1182ZM88.6482 56.0393L88.4592 56.3542L88.6482 56.4487C88.6482 56.2388 88.7217 56.1338 88.8687 56.1338V56.0393H88.6482ZM87.0735 58.7793L87.168 58.9998L86.979 59.0942H86.853V58.9998C86.874 58.8528 86.9475 58.7793 87.0735 58.7793ZM84.302 60.9209V61.2358H84.0815V61.1099C84.1235 60.9839 84.197 60.9209 84.302 60.9209ZM83.8926 61.4563L84.0815 61.5508H84.428C83.8821 62.4956 83.4937 63.0205 83.2627 63.1255H83.1367V63.031C83.2207 62.905 83.2627 62.8 83.2627 62.7161L82.7273 63.2515L82.6013 63.031C83.1052 62.2332 83.5356 61.7083 83.8926 61.4563ZM84.7429 62.9365L84.9319 63.031L85.0579 62.8105V62.7161H84.9319C84.8059 62.7371 84.7429 62.8105 84.7429 62.9365ZM83.3572 68.6685C83.4832 68.7314 83.5881 68.7629 83.6721 68.7629V68.9834C83.4832 68.9834 83.2732 69.0884 83.0422 69.2983V68.9834C83.0422 68.8784 83.1472 68.7734 83.3572 68.6685ZM131.071 23.0334H132.457C135.795 23.0334 138.419 24.5347 140.33 27.5371C140.918 28.8599 141.348 30.1406 141.621 31.3794L141.495 31.9463V32.4187C141.495 32.5867 141.537 32.7441 141.621 32.8911C141.306 34.7808 140.729 36.5969 139.889 38.3396C139.889 39.0745 139.343 40.1978 138.251 41.7095C137.58 41.8354 136.771 42.4128 135.826 43.4417C135.113 43.7566 134.178 44.292 133.023 45.0479H133.149C134.115 44.7539 134.693 44.6069 134.882 44.6069V44.8274L129.433 46.6855C127.984 46.6855 126.483 46.1396 124.929 45.0479C124.321 44.46 123.586 43.4207 122.725 41.9299C122.725 41.825 122.294 40.7437 121.434 38.686C121.35 37.7622 121.234 37.3003 121.087 37.3003C121.087 34.5078 122.557 32.2192 125.496 30.4346C126.567 29.9517 127.575 29.6052 128.52 29.3953C128.52 29.3113 128.551 29.2693 128.614 29.2693C129.601 29.4792 130.262 29.8677 130.598 30.4346C130.598 30.5815 130.787 30.97 131.165 31.5999V31.9463C131.165 32.3872 130.745 32.9331 129.906 33.584C130.052 33.605 130.126 33.6785 130.126 33.8044C129.538 34.0984 129.034 34.6443 128.614 35.4421V35.6626H128.74L129.339 35.3162H129.78L127.354 37.0483C126.494 37.9512 125.948 38.8435 125.717 39.7253C125.717 39.8933 126.032 40.1243 126.662 40.4182H127.229C128.635 40.4182 130.609 39.7988 133.149 38.5601C134.955 37.2163 136.236 35.7466 136.992 34.1509C137.517 33.1851 137.895 31.8728 138.125 30.2141V29.3953C137.58 28.5344 136.383 27.8835 134.535 27.4426C133.842 27.4426 133.265 27.3586 132.803 27.1907L130.819 27.4426V27.1907C130.924 27.1907 131.354 27.1172 132.11 26.9702H134.094L134.661 27.0647L134.787 26.8442L134.535 26.7183C133.884 26.8022 133.349 26.8442 132.929 26.8442L131.165 26.2773H130.945C130.777 26.2773 130.619 26.3088 130.472 26.3718C130.346 26.3088 130.199 26.2773 130.031 26.2773L129.433 26.3718C129.013 25.8469 128.709 25.5845 128.52 25.5845C128.205 25.4585 128.047 25.343 128.047 25.238C128.047 25.1541 128.205 24.9126 128.52 24.5137C128.52 24.1987 128.32 23.8943 127.921 23.6003C128.845 23.2224 129.895 23.0334 131.071 23.0334ZM157.62 0.893066C157.683 0.998047 157.715 1.11353 157.715 1.2395L157.872 1.14502V1.2395C157.767 1.47046 157.715 1.68042 157.715 1.86938H157.778L158.219 1.58594L158.313 1.7749C157.494 3.87451 157.085 5.0188 157.085 5.20776H156.99L157.085 5.36523L156.203 7.41235H156.455C156.518 6.99243 156.644 6.78247 156.833 6.78247C156.833 6.86646 156.917 6.96094 157.085 7.06592C157.148 6.93994 157.179 6.84546 157.179 6.78247H157.274C157.379 6.80347 157.431 6.86646 157.431 6.97144C157.179 7.43335 157.001 7.66431 156.896 7.66431V7.75879C157.022 7.90576 157.085 8.02124 157.085 8.10522H157.179C157.263 8.10522 157.379 7.92676 157.526 7.56982V7.12891C157.61 7.12891 157.725 6.98193 157.872 6.68799L157.778 6.53052L158.502 4.76685C158.502 4.66187 158.387 4.54639 158.156 4.42041C158.051 4.42041 157.925 4.53589 157.778 4.76685C157.862 4.76685 158.009 4.91382 158.219 5.20776C157.82 5.75366 157.557 6.13159 157.431 6.34155H157.274V6.18408H157.085C157.085 6.52002 157.022 6.68799 156.896 6.68799C156.791 6.68799 156.739 6.6355 156.739 6.53052C156.948 6.19458 157.127 5.75366 157.274 5.20776C157.799 3.86401 158.061 3.16064 158.061 3.09766L158.313 2.90869H158.408C158.345 3.16064 158.313 3.37061 158.313 3.53857C158.502 3.53857 158.597 3.65405 158.597 3.88501L158.408 3.97949L158.502 4.4834H158.66C158.681 4.18945 158.891 3.84302 159.29 3.44409C159.29 3.50708 159.321 3.53857 159.384 3.53857C159.3 3.76953 159.153 3.9375 158.943 4.04248C158.943 4.10547 158.975 4.13696 159.038 4.13696C158.849 5.06079 158.639 5.85864 158.408 6.53052L158.597 6.625C158.807 5.78516 159.038 5.28125 159.29 5.11328C159.29 5.17627 159.321 5.20776 159.384 5.20776C159.321 5.85864 159.227 6.26807 159.101 6.43604H159.384C159.384 6.49902 159.353 6.53052 159.29 6.53052L159.384 6.97144C158.502 9.51196 157.589 12.3044 156.644 15.3489C157.106 15.3489 157.337 15.3699 157.337 15.4119L157.526 15.3489C158.723 15.3489 159.835 15.2859 160.864 15.1599C160.99 15.2229 161.085 15.2544 161.148 15.2544C161.232 15.1494 161.935 15.0549 163.258 14.9709C163.363 15.0339 163.447 15.0654 163.51 15.0654C163.615 15.0024 163.741 14.9709 163.888 14.9709C163.888 15.0969 163.94 15.1599 164.045 15.1599C164.066 15.0339 164.129 14.9709 164.234 14.9709H165.021L165.462 14.908C165.462 14.95 165.494 14.9709 165.557 14.9709C165.557 14.887 166.082 14.7715 167.132 14.6245V14.719L169.336 14.3726C169.441 14.4355 169.557 14.467 169.683 14.467C169.704 14.3411 169.767 14.2781 169.872 14.2781H169.966C170.092 14.2781 170.208 14.3096 170.312 14.3726C170.417 14.3096 170.533 14.2781 170.659 14.2781L170.848 14.3726C170.848 14.2886 170.932 14.1941 171.1 14.0891C171.205 14.1521 171.289 14.1836 171.352 14.1836C171.373 14.0786 171.436 14.0261 171.541 14.0261H171.793L171.73 14.1836H171.982C171.982 14.0156 172.601 13.8372 173.84 13.6482C173.945 13.7112 174.06 13.7427 174.186 13.7427C174.375 13.7427 174.638 13.6272 174.974 13.3962C174.974 13.5222 175.058 13.5852 175.226 13.5852C175.394 13.5852 175.604 13.4907 175.855 13.3018C175.981 13.3018 176.097 13.3333 176.202 13.3962C176.328 13.3333 176.422 13.3018 176.485 13.3018L176.643 13.3962C177.147 13.1233 177.735 12.9238 178.406 12.7979C178.406 12.7349 178.469 12.7034 178.595 12.7034C178.616 12.8083 178.669 12.8608 178.753 12.8608C178.942 12.8608 179.33 12.7454 179.918 12.5144C180.023 12.5774 180.139 12.6089 180.265 12.6089H180.454V12.5144C180.391 12.4094 180.359 12.3254 180.359 12.2625H180.454C180.58 12.2625 180.695 12.2939 180.8 12.3569L183.886 11.5381H183.981L183.886 11.3806V11.2861C183.991 11.3071 184.044 11.3701 184.044 11.4751L184.233 11.3806L184.422 11.4751C185.703 11.0552 187.015 10.6982 188.359 10.4043H188.642V10.1523H188.989C189.576 10.0474 189.87 9.92139 189.87 9.77441L190.122 9.96338C190.437 9.79541 190.91 9.61694 191.54 9.42798V9.3335L191.98 9.42798C192.967 9.07104 193.734 8.87158 194.28 8.82959C194.28 8.7666 194.343 8.73511 194.469 8.73511L194.626 8.82959L195.508 8.45166H195.697L195.949 8.64062H196.043L195.949 8.45166C196.264 8.34668 196.558 8.19971 196.831 8.01074H197.083C197.083 7.92676 197.177 7.84277 197.366 7.75879C197.366 7.84277 197.45 7.92676 197.618 8.01074C197.618 7.90576 197.712 7.85327 197.901 7.85327L198.342 7.94775C198.342 7.82178 198.395 7.75879 198.5 7.75879C198.626 7.82178 198.72 7.85327 198.783 7.85327L199.224 7.50684H199.287L199.224 7.66431V7.75879H199.287C200.274 7.44385 200.925 7.1814 201.24 6.97144L201.681 7.06592C201.702 6.93994 201.765 6.87695 201.87 6.87695L202.027 6.97144H202.122V6.87695H201.933V6.68799L202.562 6.78247H202.657L202.562 6.625V6.53052L203.35 6.24707V6.34155L203.255 6.53052H203.696C203.885 6.36255 204.62 6.15259 205.901 5.90063C205.922 5.81665 206.688 5.58569 208.2 5.20776C208.221 5.08179 208.284 5.0188 208.389 5.0188L208.546 5.11328C208.84 4.9873 209.964 4.69336 211.916 4.23145C211.916 4.16846 211.937 4.13696 211.979 4.13696H212.704L213.145 4.23145V3.88501C213.229 3.88501 213.575 3.79053 214.184 3.60156H214.53V3.69604L214.467 3.88501H214.53C215.265 3.65405 215.738 3.53857 215.948 3.53857V3.60156C215.885 3.76953 214.803 4.09497 212.704 4.57788L206.342 6.34155V6.53052H206.436C206.982 6.34155 207.308 6.24707 207.413 6.24707V6.34155L207.759 6.18408C207.864 6.22607 207.948 6.24707 208.011 6.24707C208.305 6.1001 208.452 5.98462 208.452 5.90063L208.893 5.99512C209.187 5.76416 209.397 5.64868 209.523 5.64868L209.964 5.74316C209.985 5.61719 210.048 5.5542 210.153 5.5542L210.31 5.64868C210.31 5.45972 210.698 5.31274 211.475 5.20776H211.633V5.45972H211.916L211.822 5.0188H212.357L212.861 4.67236H212.956L213.145 4.76685C213.166 4.64087 213.218 4.57788 213.302 4.57788H213.396C213.396 4.72485 213.459 4.87183 213.585 5.0188L213.302 5.36523C213.365 5.36523 213.396 5.39673 213.396 5.45972H213.302C213.197 5.45972 213.145 5.37573 213.145 5.20776C213.019 5.22876 212.956 5.28125 212.956 5.36523C213.082 5.42822 213.176 5.45972 213.239 5.45972C213.239 5.66968 212.819 5.78516 211.979 5.80615C212.042 5.70117 212.074 5.61719 212.074 5.5542H211.979C211.895 5.61719 211.727 5.64868 211.475 5.64868C211.475 5.75366 211.559 5.80615 211.727 5.80615V5.99512L211.286 6.0896L211.192 5.90063C211.192 5.83765 211.223 5.80615 211.286 5.80615L211.192 5.64868V5.5542H211.475V5.45972C211.412 5.45972 211.318 5.42822 211.192 5.36523C211.024 5.49121 210.824 5.5542 210.594 5.5542V5.74316C210.719 5.74316 210.887 5.82715 211.097 5.99512H211.192L211.034 6.24707C211.076 6.37305 211.097 6.46753 211.097 6.53052C210.426 6.69849 209.985 6.84546 209.775 6.97144C209.67 6.97144 209.617 6.90845 209.617 6.78247C210.499 6.50952 210.94 6.33105 210.94 6.24707H210.594V6.0896H210.751V5.90063H210.656C210.279 6.32056 209.869 6.53052 209.428 6.53052C209.365 6.40454 209.334 6.31006 209.334 6.24707H209.271L208.987 6.43604L208.83 6.34155L208.735 6.53052H208.987V6.68799C207.938 7.00293 207.413 7.21289 207.413 7.31787H207.507L208.105 7.22339V7.31787C208.105 7.42285 207.633 7.60132 206.688 7.85327C206.688 7.91626 206.636 7.94775 206.531 7.94775C206.342 7.94775 206.247 7.82178 206.247 7.56982H206.09C205.838 7.98975 205.596 8.19971 205.365 8.19971V8.10522C205.135 8.2312 204.935 8.29419 204.767 8.29419V8.10522C205.208 8.00024 205.47 7.94775 205.554 7.94775L205.46 7.75879C202.227 8.64062 200.589 9.14453 200.547 9.27051C201.912 8.97656 203.203 8.61963 204.421 8.19971C204.421 8.2627 204.683 8.44116 205.208 8.73511C204.998 8.84009 204.641 8.95557 204.137 9.08154V8.98706L203.98 9.08154H203.633C203.717 8.87158 204.095 8.7561 204.767 8.73511C204.767 8.60913 204.704 8.54614 204.578 8.54614H204.137C203.591 8.73511 203.245 8.82959 203.098 8.82959H202.909C202.909 9.01855 202.437 9.18652 201.492 9.3335C201.492 9.45947 201.324 9.52246 200.988 9.52246L201.051 9.71143C201.324 9.58545 201.712 9.52246 202.216 9.52246H202.374C202.374 9.2915 202.552 9.17603 202.909 9.17603H203.35V9.3335H203.192C203.003 9.3335 202.646 9.45947 202.122 9.71143C201.66 9.71143 200.925 9.94238 199.917 10.4043C199.329 10.4043 199.035 10.4883 199.035 10.6562C198.93 10.6143 198.846 10.5933 198.783 10.5933L198.405 10.7507C198.405 10.6458 198.353 10.5933 198.248 10.5933C198.248 10.8032 197.922 10.9502 197.271 11.0342L197.083 10.9397H197.02V11.0342H197.177C197.177 11.1392 197.125 11.1917 197.02 11.1917L196.579 11.0972C196.558 11.1812 196.264 11.3596 195.697 11.6326C195.697 11.5696 195.665 11.5381 195.602 11.5381C195.539 11.6641 195.508 11.7585 195.508 11.8215H195.413C195.413 11.6956 195.382 11.6326 195.319 11.6326L195.161 11.7271L194.972 11.6326C194.909 11.6326 194.762 11.7795 194.531 12.0735C194.531 11.9685 194.479 11.916 194.374 11.916H194.091C193.86 12.084 193.335 12.252 192.516 12.4199C192.453 12.189 192.337 12.0735 192.169 12.0735C192.043 12.1365 191.949 12.168 191.886 12.168V12.2625C192.138 12.2625 192.264 12.3149 192.264 12.4199C191.907 12.5669 191.729 12.6929 191.729 12.7979H191.823L191.729 12.9553V13.0498C193.828 12.5249 195.497 12.021 196.736 11.5381C196.799 11.5381 196.831 11.5696 196.831 11.6326C197.292 11.4016 197.618 11.2861 197.807 11.2861L197.964 11.3806C197.964 11.2546 198.972 10.9292 200.988 10.4043C207.875 8.40967 211.864 7.29687 212.956 7.06592V7.22339L202.751 10.1523C201.912 10.3833 201.439 10.5513 201.334 10.6562C201.061 10.6562 199.623 11.0447 197.02 11.8215C196.831 11.9265 195.707 12.252 193.65 12.7979C193.566 12.7979 193.272 12.9343 192.768 13.2073C192.663 13.1653 192.579 13.1443 192.516 13.1443C192.453 13.2493 192.421 13.3333 192.421 13.3962L191.98 13.3018H191.886V13.3962H192.075V13.5852C190.605 13.8582 189.786 14.1206 189.618 14.3726C189.492 14.3096 189.398 14.2781 189.335 14.2781C189.104 14.488 188.107 14.8135 186.343 15.2544C186.343 15.3174 186.312 15.3489 186.249 15.3489C186.144 15.2859 186.06 15.2544 185.997 15.2544L185.902 15.4119L185.461 15.3489C185.272 15.3489 185.073 15.4644 184.863 15.6953C184.737 15.6323 184.642 15.6008 184.579 15.6008L184.485 15.7898L184.327 15.6953H184.138C184.138 15.8633 184.086 15.9473 183.981 15.9473H183.792L183.351 15.8528C183.351 15.9788 183.204 16.1047 182.91 16.2307L182.375 16.1362C181.598 16.6611 178.197 17.48 172.171 18.5928C170.701 18.8867 168.79 19.1807 166.439 19.4746V19.3801C163.016 19.926 159.426 20.199 155.668 20.199H155.51C155.3 20.4089 154.712 22.4875 153.747 26.4348C150.912 35.3582 148.645 41.5835 146.944 45.1108C146.797 45.6357 146.419 46.1396 145.81 46.6226H145.621C145.033 46.6226 144.739 46.5596 144.739 46.4336L144.582 46.5281H144.487L142.913 45.9297C142.85 45.9297 142.755 45.9507 142.629 45.9927C142.209 45.9927 141.8 45.6987 141.401 45.1108C142.808 42.1504 143.836 39.7463 144.487 37.8987L146.062 33.7415C146.062 33.5945 146.387 32.6917 147.038 31.033C147.857 28.5764 148.708 25.6055 149.589 22.1201C149.694 22.1201 149.936 21.4482 150.314 20.1045C147.479 19.6216 145.6 19.0337 144.676 18.3408C144.382 18.3408 143.584 17.7529 142.283 16.5771V16.2937H142.472V16.1362C142.178 15.6953 141.999 15.1389 141.936 14.467C141.873 14.467 141.842 14.4355 141.842 14.3726L141.936 14.1836C141.873 14.0786 141.842 13.9631 141.842 13.8372H141.936L141.842 13.6482V13.5852C141.905 12.7034 142.083 12.2625 142.377 12.2625L146.503 14.1836L149.148 14.908L149.337 14.8135C149.673 14.9185 150.408 15.0654 151.542 15.2544C151.836 14.4985 152.13 13.5537 152.424 12.4199C152.823 10.8032 153.316 9.24951 153.904 7.75879C153.988 7.29687 154.135 7.06592 154.345 7.06592C154.345 7.00293 154.324 6.97144 154.282 6.97144C154.282 6.40454 154.513 5.90063 154.975 5.45972L154.88 5.30225C155.279 5.0083 155.542 4.86133 155.668 4.86133C155.668 4.67236 155.647 4.57788 155.605 4.57788C155.605 4.4519 155.689 4.10547 155.857 3.53857H156.298C156.676 2.3418 157.116 1.45996 157.62 0.893066ZM158.408 2.37329H158.597V2.65674H158.219V2.56226C158.24 2.43628 158.303 2.37329 158.408 2.37329ZM217.113 2.81421V3.00317C216.693 3.10815 216.451 3.16064 216.388 3.16064L216.294 3.00317C216.567 2.8772 216.84 2.81421 217.113 2.81421ZM217.554 3.09766H217.806V3.25513H217.365C217.386 3.15015 217.449 3.09766 217.554 3.09766ZM217.27 3.25513C217.27 3.4021 216.924 3.51758 216.231 3.60156L216.136 3.44409C216.724 3.31812 217.102 3.25513 217.27 3.25513ZM218.499 3.34961H218.688C218.688 3.49658 218.425 3.58057 217.9 3.60156V3.44409L218.499 3.34961ZM213.396 4.04248V4.13696H213.491C213.953 4.07397 214.184 3.98999 214.184 3.88501H214.089C214.047 3.88501 213.816 3.9375 213.396 4.04248ZM216.829 3.79053V3.97949L216.672 3.88501C216.672 3.98999 216.609 4.04248 216.483 4.04248H216.388C216.283 4.04248 216.231 3.98999 216.231 3.88501L216.829 3.79053ZM216.231 3.97949L216.042 4.23145C216.105 4.33643 216.136 4.42041 216.136 4.4834H216.042L215.79 4.32593H215.507L215.601 4.4834V4.57788H215.412C215.328 4.57788 215.244 4.4939 215.16 4.32593C215.286 4.19995 215.643 4.08447 216.231 3.97949ZM214.908 4.23145L215.066 4.67236L214.814 4.86133H214.719C214.593 4.86133 214.53 4.79834 214.53 4.67236H214.908V4.57788H214.53C214.53 4.70386 214.478 4.76685 214.373 4.76685C214.247 4.76685 214.184 4.70386 214.184 4.57788C214.184 4.4729 214.425 4.35742 214.908 4.23145ZM213.585 4.57788H214.026C214.026 4.80884 214.079 4.92432 214.184 4.92432H214.908V5.0188C214.908 5.14478 214.635 5.23926 214.089 5.30225V5.20776L214.184 5.0188C213.869 5.0188 213.669 4.90332 213.585 4.67236V4.57788ZM213.145 4.86133L213.05 5.0188V5.11328C213.155 5.05029 213.271 5.0188 213.396 5.0188V4.92432C213.333 4.92432 213.25 4.90332 213.145 4.86133ZM157.715 4.92432L157.62 5.36523C157.704 5.36523 157.82 5.24976 157.967 5.0188L157.778 4.92432H157.715ZM212.168 5.20776V5.36523C212.294 5.36523 212.357 5.42822 212.357 5.5542H212.609C212.735 5.5542 212.798 5.49121 212.798 5.36523C212.672 5.36523 212.609 5.31274 212.609 5.20776H212.861V5.0188C212.693 5.14478 212.462 5.20776 212.168 5.20776ZM214.026 5.45972H214.184V5.64868H213.837C213.858 5.52271 213.921 5.45972 214.026 5.45972ZM157.431 5.64868C157.431 5.73267 157.379 5.84814 157.274 5.99512V6.0896C157.358 6.0896 157.473 5.97412 157.62 5.74316L157.431 5.64868ZM208.2 6.34155C208.263 6.34155 208.347 6.37305 208.452 6.43604H208.546V6.34155C208.441 6.34155 208.389 6.28906 208.389 6.18408C208.263 6.20508 208.2 6.25757 208.2 6.34155ZM203.696 6.18408H203.791V6.24707C203.791 6.37305 203.738 6.43604 203.633 6.43604L203.539 6.24707L203.696 6.18408ZM205.806 6.53052C205.869 6.6355 205.901 6.75098 205.901 6.87695H205.995C205.995 6.77197 206.079 6.625 206.247 6.43604H206.09C205.964 6.49902 205.869 6.53052 205.806 6.53052ZM207.854 6.43604L207.948 6.625C208.053 6.56201 208.137 6.53052 208.2 6.53052V6.43604H207.854ZM208.389 6.68799H208.452C208.578 6.68799 208.641 6.6355 208.641 6.53052H208.546C208.441 6.55151 208.389 6.604 208.389 6.68799ZM212.263 6.43604H212.515V6.625H212.263V6.43604ZM158.061 7.56982C158.229 7.56982 158.376 7.27588 158.502 6.68799H158.408C158.24 6.68799 158.124 6.98193 158.061 7.56982ZM204.484 7.06592L205.554 6.78247V6.68799H205.46C204.809 6.77197 204.484 6.89795 204.484 7.06592ZM207.413 6.97144H207.57C207.696 6.90845 207.791 6.87695 207.854 6.87695V6.78247H207.57C207.465 6.80347 207.413 6.86646 207.413 6.97144ZM211.633 6.68799L211.727 6.87695L211.475 7.06592H210.845C210.845 6.96094 211.108 6.83496 211.633 6.68799ZM209.082 6.87695H209.428C209.428 7.00293 209.376 7.06592 209.271 7.06592H209.082V6.87695ZM203.696 7.12891V7.31787H203.791L203.98 7.22339C204.085 7.28638 204.2 7.31787 204.326 7.31787H204.421C204.421 7.23389 204.305 7.1499 204.074 7.06592C204.074 7.10791 204.043 7.12891 203.98 7.12891V7.06592C203.854 7.10791 203.759 7.12891 203.696 7.12891ZM210.058 7.06592H210.153C210.258 7.06592 210.31 7.11841 210.31 7.22339V7.31787H210.058V7.06592ZM198.248 8.73511V8.82959H198.5C198.71 8.70361 199.098 8.57764 199.665 8.45166C199.665 8.53564 199.749 8.63013 199.917 8.73511H200.011C199.885 8.58813 199.823 8.49365 199.823 8.45166C200.011 8.34668 200.19 8.29419 200.358 8.29419L200.799 8.38867L200.704 8.19971L203.444 7.41235V7.22339L198.248 8.73511ZM209.176 7.31787H209.523C209.523 7.44385 209.46 7.50684 209.334 7.50684H209.176V7.31787ZM204.421 7.50684V7.66431C204.61 7.66431 204.757 7.6958 204.862 7.75879V7.56982L204.421 7.50684ZM153.999 7.94775V8.38867H154.093L154.188 7.94775H153.999ZM203.35 7.94775C203.371 8.05273 203.434 8.10522 203.539 8.10522H203.633C203.633 8.00024 203.57 7.94775 203.444 7.94775H203.35ZM197.712 8.01074V8.10522H198.059V8.01074H197.712ZM206.783 8.01074H207.066C207.066 8.13672 207.003 8.19971 206.877 8.19971H206.783V8.01074ZM156.99 8.38867V8.54614C157.116 8.48315 157.211 8.45166 157.274 8.45166V8.19971H157.179C157.053 8.2207 156.99 8.28369 156.99 8.38867ZM155.951 8.29419V8.54614C156.056 8.54614 156.109 8.49365 156.109 8.38867V8.29419H155.951ZM206.342 8.19971V8.38867L205.901 8.45166C205.901 8.32568 206.048 8.2417 206.342 8.19971ZM205.302 8.45166H205.743V8.64062C205.533 8.70361 205.407 8.73511 205.365 8.73511L205.302 8.54614V8.45166ZM196.736 9.17603V9.27051H196.925C197.03 9.27051 197.208 9.20752 197.46 9.08154C197.565 9.14453 197.649 9.17603 197.712 9.17603L197.807 8.98706H197.618C197.471 8.98706 197.177 9.05005 196.736 9.17603ZM193.933 9.08154V9.17603H194.28V9.08154H193.933ZM195.697 9.61694H195.949L196.201 9.42798C196.327 9.49097 196.421 9.52246 196.484 9.52246L196.579 9.3335C196.453 9.3335 196.39 9.3125 196.39 9.27051C195.928 9.39648 195.697 9.51196 195.697 9.61694ZM199.287 9.71143H199.382C199.508 9.71143 199.571 9.64844 199.571 9.52246H199.476C199.35 9.54346 199.287 9.60645 199.287 9.71143ZM200.452 9.71143C200.452 9.64844 200.421 9.61694 200.358 9.61694C200.358 9.72192 199.739 9.92139 198.5 10.2153V10.4043H198.783C198.93 10.2993 199.634 10.0684 200.893 9.71143V9.52246H200.704L200.452 9.71143ZM196.295 10.4988H196.579V10.3098H196.484C196.358 10.3308 196.295 10.3938 196.295 10.4988ZM197.271 10.4988V10.6562L198.153 10.5933V10.4988C198.09 10.4988 198.006 10.4673 197.901 10.4043C197.67 10.4673 197.46 10.4988 197.271 10.4988ZM156.109 10.5933V10.8452H156.392V10.5933H156.109ZM194.972 11.1917V11.2861H195.161C195.371 11.2861 196.012 11.1077 197.083 10.7507V10.6562H196.831C196.495 10.8452 195.875 11.0237 194.972 11.1917ZM194.815 10.9397H194.972C195.098 10.8767 195.193 10.8452 195.256 10.8452V10.7507H194.972C194.867 10.7717 194.815 10.8347 194.815 10.9397ZM192.768 11.4751V11.6326L193.398 11.5381L193.303 11.3806L192.768 11.4751ZM192.327 11.5381V11.6326H192.705L192.61 11.4751C192.484 11.5171 192.39 11.5381 192.327 11.5381ZM194.185 11.6326H194.374C194.479 11.6326 194.531 11.5801 194.531 11.4751H194.374C194.248 11.4751 194.185 11.5276 194.185 11.6326ZM193.146 11.7271V11.916C193.335 11.916 193.482 11.937 193.587 11.979C193.587 11.811 193.755 11.7271 194.091 11.7271V11.5381H194.028C193.608 11.6641 193.314 11.7271 193.146 11.7271ZM191.099 11.916V11.979H191.445C191.571 11.979 191.634 11.9265 191.634 11.8215C191.571 11.8215 191.54 11.79 191.54 11.7271C191.351 11.853 191.204 11.916 191.099 11.916ZM192.516 11.979V12.0735C192.642 12.0735 192.757 12.042 192.862 11.979L193.051 12.0735H193.146V11.979C192.957 11.979 192.862 11.895 192.862 11.7271C192.631 11.811 192.516 11.895 192.516 11.979ZM189.87 12.7034V12.7979H189.965L191.099 12.5144C191.225 12.5774 191.319 12.6089 191.382 12.6089V12.7034C191.382 12.8083 191.319 12.8608 191.193 12.8608C191.067 12.8608 190.952 12.8398 190.847 12.7979L190.311 13.0498L190.122 12.9553C190.122 13.0393 189.975 13.1548 189.681 13.3018H189.524L189.335 13.2073C189.335 13.3333 189.188 13.3962 188.894 13.3962L188.989 13.5852L188.8 13.6482C188.8 13.5432 188.747 13.4907 188.642 13.4907C188.516 13.5537 188.422 13.5852 188.359 13.5852C188.485 13.7322 188.548 13.8477 188.548 13.9316H188.737L188.642 13.7427V13.6482L189.083 13.7427C189.188 13.7427 189.24 13.6902 189.24 13.5852L189.429 13.6482H189.618L189.524 13.4907L189.681 13.3962C189.702 13.5222 189.765 13.5852 189.87 13.5852H190.059L189.965 13.3962L190.122 13.3018V13.4907C190.878 13.3437 191.382 13.1338 191.634 12.8608L191.54 12.7034L191.823 12.2625H191.382V12.5144H191.288V12.2625L189.87 12.7034ZM188.359 13.2073H188.737C188.842 13.2073 188.894 13.1548 188.894 13.0498H188.548C188.422 13.0708 188.359 13.1233 188.359 13.2073ZM186.091 13.7427V13.8372H186.438V13.6482H186.343C186.238 13.7112 186.154 13.7427 186.091 13.7427ZM188.107 13.7427V13.8372C188.128 13.9631 188.191 14.0261 188.296 14.0261H188.359V13.7427H188.107ZM187.414 13.8372C187.414 13.9631 187.382 14.0786 187.319 14.1836H187.571V14.0261L187.76 14.0891H188.012V14.0261C188.012 13.9001 187.96 13.8372 187.855 13.8372H187.414ZM186.973 14.0261C186.973 14.1311 186.91 14.1836 186.784 14.1836C186.805 14.3096 186.868 14.3726 186.973 14.3726H187.13V14.2781L187.036 14.0891C187.099 14.0891 187.13 14.0681 187.13 14.0261H186.973ZM183.981 14.8135L184.044 14.9709C183.939 15.0339 183.855 15.0654 183.792 15.0654C183.813 15.1914 183.876 15.2544 183.981 15.2544C184.611 15.0024 185.02 14.7925 185.209 14.6245C185.356 14.6245 185.524 14.6875 185.713 14.8135L185.808 14.6245C185.745 14.6245 185.713 14.593 185.713 14.53L186.154 14.6245L186.689 14.467C186.689 14.3411 186.637 14.2781 186.532 14.2781H186.438L186.154 14.467C186.154 14.3411 186.133 14.2781 186.091 14.2781C185.965 14.3411 185.871 14.3726 185.808 14.3726V14.2781C184.884 14.635 184.275 14.8135 183.981 14.8135ZM182.816 15.2544C182.837 15.3594 182.9 15.4119 183.005 15.4119C183.425 15.4119 183.656 15.3279 183.698 15.1599L183.257 15.0654V15.2544H183.162V15.0654H183.005C182.879 15.0864 182.816 15.1494 182.816 15.2544ZM182.123 15.3489V15.4119L182.658 15.5063C182.658 15.4224 182.564 15.3384 182.375 15.2544C182.27 15.3174 182.186 15.3489 182.123 15.3489ZM160.644 22.6555H160.864C160.864 22.9495 160.906 23.0964 160.99 23.0964L160.864 23.6318V24.7026C160.864 24.7866 160.833 24.8286 160.77 24.8286L160.864 25.0491L160.77 25.5845H161.085C161.169 24.8916 161.316 24.2722 161.526 23.7263H162.061C162.082 23.6003 162.156 23.5374 162.281 23.5374L162.722 23.8523L162.817 23.4114H163.037V24.1672C163.163 24.1672 163.31 23.8103 163.478 23.0964H163.793C163.793 23.3904 163.867 23.5374 164.014 23.5374V24.3877C164.014 24.4507 163.972 24.4822 163.888 24.4822C163.972 24.6082 164.014 24.8286 164.014 25.1436H164.108V24.6082H164.329V25.0491C164.182 25.427 164.035 26.8232 163.888 29.2378C163.741 29.7207 163.384 32.1667 162.817 36.5759C162.754 36.5759 162.722 36.6914 162.722 36.9224L162.817 37.1113C162.67 37.5103 162.198 40.3972 161.4 45.7722C161.316 45.7722 161.032 46.0557 160.549 46.6226C158.387 46.4756 157.305 46.2551 157.305 45.9612L156.55 46.0872C155.332 45.9192 154.723 45.6672 154.723 45.3313V44.7959C155.08 44.7959 155.909 41.0481 157.211 33.5525C157.316 32.5027 157.463 31.7888 157.652 31.4109L157.526 31.1904C157.673 30.3506 158.072 28.7339 158.723 26.3403C158.723 25.9834 158.754 25.8049 158.817 25.8049L158.723 25.5845C158.912 25.0806 159.059 24.8286 159.164 24.8286C159.164 24.8916 159.195 24.9231 159.258 24.9231C159.426 24.0623 159.636 23.4114 159.888 22.9705L160.108 23.0964H160.234C160.234 22.9495 160.266 22.876 160.329 22.876H160.644V22.6555ZM189.398 16.4197H189.492V16.7031L189.398 16.9236C189.524 16.9446 189.587 17.0181 189.587 17.144L189.02 18.1519V18.2778H189.115C189.115 18.0679 189.303 17.8264 189.681 17.5535V17.6479C189.66 17.7739 189.345 18.2883 188.737 19.1912V19.3171C189.303 18.9602 189.587 18.6768 189.587 18.4668H189.681V18.5928C189.681 18.9497 189.429 19.3276 188.926 19.7266L188.737 19.6006L188.611 19.821V19.9155H188.926L188.831 20.136C188.915 20.136 189.01 20.241 189.115 20.4509V20.5454L188.611 21.3643V21.4902H188.831V21.5847C188.831 21.6897 188.726 21.7947 188.516 21.8997C188.516 21.7527 188.453 21.6792 188.327 21.6792L188.138 22.3091H188.233L188.611 21.9941H188.737C188.737 22.0991 188.6 22.2356 188.327 22.4036L188.422 22.624C188.422 22.729 188.17 22.9705 187.666 23.3484C187.981 23.3694 188.138 23.4744 188.138 23.6633C187.676 24.5242 187.256 25.0386 186.878 25.2065C186.626 25.5425 186.438 25.7104 186.312 25.7104V25.9309H186.5V25.7104C186.626 25.7104 186.689 25.8154 186.689 26.0254H186.784L187.949 24.4822H188.044C187.519 25.553 186.49 27.1067 184.957 29.1433H184.863V29.0488L185.272 28.3245H185.178L184.012 29.3323C183.97 29.5422 183.813 29.8257 183.54 30.1826L183.729 30.2771H183.823L184.674 29.3323L184.768 29.5527C183.677 31.2954 183.036 32.5342 182.847 33.269C182.784 33.269 182.375 33.9304 181.619 35.2532C180.443 36.408 179.383 37.7832 178.438 39.3789C177.934 40.2607 177.42 41.3315 176.895 42.5913C175.803 44.8379 175.194 46.0452 175.068 46.2131L174.407 46.843C174.323 46.843 174.281 46.8115 174.281 46.7485L174.092 46.843C173.756 46.5911 173.052 46.3496 171.982 46.1187C171.982 46.0347 171.73 45.8982 171.226 45.7092L171.037 45.8037C169.945 45.5308 169.399 44.9429 169.399 44.04C169 42.2134 168.486 39.0745 167.856 34.6233C167.478 33.2166 166.964 30.802 166.313 27.3796H166.218C166.218 26.5608 166.575 26.1514 167.289 26.1514C168.381 26.1514 169.63 26.7288 171.037 27.8835C171.268 27.8835 171.52 28.0935 171.793 28.5134C171.793 28.5764 171.761 28.6079 171.698 28.6079C171.887 29.1538 172.496 31.8518 173.525 36.7019H173.43C173.556 37.1218 173.619 37.3948 173.619 37.5208H173.714L180.17 27.7891C180.17 27.7471 181.188 26.2354 183.225 23.2539C183.225 23.1279 184.065 21.9521 185.745 19.7266C185.745 19.4536 186.385 18.5928 187.666 17.144C187.855 17.144 188.17 17.0706 188.611 16.9236L188.831 17.0181C188.831 16.9551 189.02 16.7556 189.398 16.4197ZM188.138 19.9155V20.136H188.327C188.327 19.968 188.39 19.7896 188.516 19.6006V19.5061C188.432 19.5061 188.306 19.6426 188.138 19.9155ZM187.477 24.1672L187.382 24.3877V24.4822H187.477C187.477 24.3982 187.508 24.2932 187.571 24.1672H187.477ZM198.563 22.9075C201.061 22.9075 203.245 23.9048 205.114 25.8994C205.491 26.8022 205.785 27.8835 205.995 29.1433C205.995 29.2063 205.964 29.2378 205.901 29.2378L205.995 29.8677V30.6235C205.995 31.7363 205.082 33.1221 203.255 34.7808C199.77 36.9014 197.439 37.9617 196.264 37.9617C196.117 37.8987 196.012 37.8672 195.949 37.8672C195.949 37.9932 195.875 38.0562 195.728 38.0562C195.644 38.0562 195.602 38.0247 195.602 37.9617L195.067 38.0562H194.72C194.615 38.0562 194.51 37.9617 194.406 37.7727L194.5 37.5837C194.206 37.2268 193.954 37.0483 193.744 37.0483C192.295 35.7466 191.571 34.7178 191.571 33.9619L191.792 33.8674H193.429C195.361 33.4895 197.723 32.3452 200.515 30.4346C201.754 29.1958 202.374 28.4084 202.374 28.0725L200.862 27.7891H199.539C197.586 27.957 195.035 29.1433 191.886 31.3479C190.269 32.7756 189.251 34.4658 188.831 36.4185C189.524 38.1821 192.4 39.9353 197.46 41.678C198.993 42.1609 200.967 42.6753 203.381 43.2212L203.476 43.4102C203.329 43.4312 203.255 43.4836 203.255 43.5676L203.476 43.6621C203.623 43.6621 203.696 43.5781 203.696 43.4102H204.232V43.5676H203.917V43.7566H204.137C204.935 43.7566 205.334 43.9141 205.334 44.229C205.334 44.397 205.481 44.481 205.775 44.481V44.7644C205.775 44.8904 205.701 44.9534 205.554 44.9534H205.019C204.452 44.9534 203.539 44.8274 202.279 44.5754V44.7644H202.594V44.9534H202.279C202.09 44.8274 201.943 44.7644 201.838 44.7644V44.5754H202.059V44.481H201.744L201.397 44.6699H201.303C200.757 44.6699 200.463 44.5754 200.421 44.3865H200.956C200.956 44.2815 200.883 44.229 200.736 44.229H200.421C200.421 44.334 200.274 44.3865 199.98 44.3865V44.481C200.19 44.481 200.589 44.6384 201.177 44.9534L201.523 44.7644H201.618V44.8589L201.523 45.0479H201.618C201.765 44.9849 201.88 44.9534 201.964 44.9534L204.232 45.6777C204.526 45.6777 204.673 45.7302 204.673 45.8352H204.452L203.161 45.7722H203.035V45.8352C203.098 45.8352 203.318 45.8667 203.696 45.9297V46.0242C203.696 46.1082 203.518 46.2341 203.161 46.4021C202.972 46.2761 202.825 46.2131 202.72 46.2131L202.5 46.3076C201.933 46.0557 201.565 45.9297 201.397 45.9297H201.303L202.279 46.4966C201.985 46.4966 201.838 46.6436 201.838 46.9375H201.177C200.589 46.9375 200.116 46.8115 199.76 46.5596C197.282 45.9507 194.657 44.9849 191.886 43.6621C190.017 42.3604 188.737 41.2161 188.044 40.2292C187.183 39.3894 186.49 37.3633 185.965 34.1509L185.871 33.0486C186.018 31.6418 186.27 30.613 186.626 29.9622C187.109 29.0593 187.918 28.188 189.052 27.3481C189.052 27.0332 189.702 26.5503 191.004 25.8994C192.054 25.2905 192.82 24.7446 193.303 24.2617C195.172 23.3589 196.925 22.9075 198.563 22.9075ZM205.114 31.5054C205.114 31.6104 204.862 32.0093 204.358 32.7021H204.452C204.809 32.7021 205.103 32.3032 205.334 31.5054H205.114ZM204.232 32.7966C204.064 33.3215 202.94 34.2244 200.862 35.5051C198.678 36.5969 197.513 37.1428 197.366 37.1428V37.2373H197.681C200.914 36.2505 203.213 34.8018 204.578 32.8911L204.358 32.7966H204.232ZM199.539 44.3865H199.885V44.229H199.76C199.613 44.229 199.539 44.2815 199.539 44.3865ZM203.602 45.0479H203.917V45.2053H203.602V45.0479ZM199.665 45.5833V45.7722C199.728 45.7722 199.833 45.7932 199.98 45.8352L200.074 45.6777C199.927 45.6777 199.791 45.6462 199.665 45.5833ZM200.641 46.4021C200.809 46.4021 200.956 46.4336 201.082 46.4966L201.177 46.3076L200.956 46.2131H200.862C200.715 46.2341 200.641 46.2971 200.641 46.4021Z" fill="#C62314"/>
</svg>
